<svg id="Capa_1" data-name="Capa 1" xmlns="http://www.w3.org/2000/svg" viewBox="0 0 1824.82 198.34"><defs><style>.cls-1{fill:none;stroke:#18371d;stroke-linecap:round;stroke-width:9px;}.cls-2{fill:#71c8e0;}.cls-3{fill:#f6ea5c;}.cls-4{fill:#fff;opacity:0.75;isolation:isolate;}.cls-5{fill:#7abd6d;}.cls-6{fill:#18371d;}.cls-7{fill:#f28f1c;}.cls-8{fill:#aa1737;}.cls-9{fill:#d9274a;}.cls-10{fill:#e94b5b;}.cls-11{fill:#ec6075;}.cls-12{fill:#ef798f;}</style></defs><path class="cls-1" d="M.66,119.62C300.25,79.29,909.46,26.2,949.5,136.53"/><path class="cls-2" d="M734.26,82.53s13.75,12.53,4.64,21C727.74,113.87,713.53,99,713.53,99a17.76,17.76,0,0,1-21.83,4.68c-13.61-6.25-5.48-23-5.48-23S671.57,73,675.16,57.85c2.92-12.36,16.83-16,25.43-6.19,0,0,2-22.53,18.56-21.79s11.29,20.63,9,27.11c0,0,20-5.41,23.08,9.87S738.12,83.48,734.26,82.53Z"/><path class="cls-3" d="M706.32,78.61c-6.7-4.29-9.62-11.7-6.52-16.53s11.05-5.28,17.75-1,9.61,11.7,6.51,16.53S713,82.91,706.32,78.61Z"/><path class="cls-4" d="M732.2,71.28a2.79,2.79,0,0,1,1.37-2.86c1.33-.67,2.72-1.33,4-2-.31-.07-.62-.2-.93-.27a.48.48,0,0,1-.25-.06c.5.13-.5-.07-.69-.08h-.5l-1.13,0a2,2,0,0,1-1.79-1.16,1.88,1.88,0,0,1,.35-2.12,5.92,5.92,0,0,1,3-1.39,9.08,9.08,0,0,1,3.44.19c2,.41,4.43,1.14,5.59,2.92a3.67,3.67,0,0,1-.33,4.5,5.8,5.8,0,0,1-1.4,1,7.16,7.16,0,0,1,1,.84,4.49,4.49,0,0,1,1.12,4.28c-.8,2.62-3.51,3.38-6,3.34a7.67,7.67,0,0,1-3.56-.76,6.29,6.29,0,0,1-1.36-.9,5.8,5.8,0,0,1-.61-.76,2,2,0,0,1-.3-.88c0,.12,0,.12-.06-.07a1.82,1.82,0,0,1,.28-1.68A3.18,3.18,0,0,1,732.2,71.28Z"/><path class="cls-4" d="M724.28,90.12a2.36,2.36,0,0,1,.72-1.49,2.66,2.66,0,0,1,3.26-.44c.44.32.87.58,1.3.9-.48-.7-1-1.4-1.4-2.09a2,2,0,0,1,.49-2.63,2,2,0,0,1,2.63.11,19.71,19.71,0,0,1,4.06,4.15c1.1,1.58,2.19,3.8,2,5.74a3.4,3.4,0,0,1-2.62,3,3.61,3.61,0,0,1-1.82,0c.24.7.42,1.39.59,2.08.35,1.64-.75,3.75-2.63,3.53A6.41,6.41,0,0,1,728,102c-.85,1.74-3.55,2.32-4.65.36a31.65,31.65,0,0,1-2.29-5.12A15.45,15.45,0,0,1,720,91.74,2.47,2.47,0,0,1,724.28,90.12Z"/><path class="cls-4" d="M694,90.9a20.91,20.91,0,0,1,2.26-4,2.59,2.59,0,0,1,3.53-.94,3,3,0,0,1,1.34,2.28,2.49,2.49,0,0,1,2.64,3c-.14.69-.34,1.38-.42,2.13.26-.44.58-.93.84-1.37l.39-.74c0-.06.13-.25.13-.31a1.57,1.57,0,0,0,.14-.5c.2-.69.33-1.31.53-2a1.81,1.81,0,0,1,1.78-1.34,1.83,1.83,0,0,1,1.8,1.34,8.14,8.14,0,0,1,.15,1.7c-.07.5-.14,1.06-.21,1.56a13.06,13.06,0,0,1-4.27,7.32c-1.08.92-2.35,2-3.85,1.62-1.75-.4-2.22-2-2.38-3.61a3,3,0,0,1-1.2.54,3.25,3.25,0,0,1-3.61-1.5C692.43,94.44,693.28,92.58,694,90.9Z"/><path class="cls-4" d="M708.49,44.47a22,22,0,0,1,3-4.9,2.51,2.51,0,0,1,2.64-.64,2.7,2.7,0,0,1,4.63.9,8.58,8.58,0,0,1,.26,2.51l1.28-1.42a2.65,2.65,0,0,1,2.77-.58,2.6,2.6,0,0,1,1.59,2.29,24.41,24.41,0,0,1-.37,6.45,16.48,16.48,0,0,1-.87,3.11,6.62,6.62,0,0,1-1.68,2.86,1.76,1.76,0,0,1-3-1.25,5.39,5.39,0,0,1,.15-1.69c.07-.25.07-.5.14-.68s.14-.75.07-.38c0-.19.07-.37.07-.56a12.32,12.32,0,0,0-.9,1.55c-.91,1.61-3.61,1.81-4.45,0a9.87,9.87,0,0,1-.48-1.19,2.65,2.65,0,0,1-1.83.4,2.76,2.76,0,0,1-.38.5,2.29,2.29,0,0,1-2.33.64,2.33,2.33,0,0,1-1.66-1.65C706.47,48.82,707.64,46.33,708.49,44.47Z"/><path class="cls-4" d="M686.3,55.29a2.15,2.15,0,0,1,1-.8c.18-.05.31-.11.5-.17a7.76,7.76,0,0,1-.35-1.2,2.69,2.69,0,0,1,0-1.26,3.39,3.39,0,0,1,.58-1,2.44,2.44,0,0,1,2.33-.65,14.63,14.63,0,0,1,2.24.73,7.75,7.75,0,0,1,1.61.91,8.81,8.81,0,0,1,2.89,3.37,1.54,1.54,0,0,1-.35,2,1.52,1.52,0,0,1-2-.1l-.06-.06c.3.57.66,1.2,1,1.77a2.85,2.85,0,0,1-.37,3.25,2.64,2.64,0,0,1-1.14.67,3,3,0,0,1-2.07-.22c-.87-.58-1.73-1.16-2.66-1.74-.44-.26-.87-.58-1.24-.84a7,7,0,0,1-2-1.73A2.67,2.67,0,0,1,686.3,55.29Z"/><path class="cls-5" d="M289.45,106.05c-7.52,7.26-8.94,48,21.14,51.29,24.85,2.77,30.05-24.54,23.3-37.58C325.56,103.67,299.22,96.63,289.45,106.05Z"/><path class="cls-6" d="M316.94,140.11a69.4,69.4,0,0,0-8.85-18.77,68.41,68.41,0,0,0-14-15.55,84.46,84.46,0,0,0-8.56-6c-3.18-1.51-6.23-3.37-9.58-4.36a41.69,41.69,0,0,0-5-1.6l-5.1-1.14a30.56,30.56,0,0,0-5.17-.62c-1.74-.14-3.48-.29-5.17-.38a1,1,0,0,0-1.12,1,1.1,1.1,0,0,0,.85,1.12h.12C262,95,268.56,96.26,274.56,99a89.62,89.62,0,0,1,8.83,4.4,77.94,77.94,0,0,1,8,5.79A83.16,83.16,0,0,1,305,123.55c1,1.36,1.93,2.71,2.84,4.13s1.81,2.82,2.6,4.23a70.81,70.81,0,0,1,4.55,8.87l.06.06a1,1,0,0,0,1.39.49A1.1,1.1,0,0,0,316.94,140.11Z"/><path class="cls-5" d="M287.56,71.13c-8.73-5.74-17.67-45.47,11.27-54.32,23.9-7.32,34.07,18.55,29.86,32.61C323.49,66.77,298.9,78.58,287.56,71.13Z"/><path class="cls-6" d="M308.27,32.56A69.5,69.5,0,0,1,303,52.65a68.54,68.54,0,0,1-10.85,17.87,83.72,83.72,0,0,1-7.3,7.51c-2.84,2.08-5.49,4.47-8.61,6.06a40.35,40.35,0,0,1-4.59,2.5l-4.8,2.06a31.1,31.1,0,0,1-5,1.57c-1.69.46-3.37.93-5,1.33a1.05,1.05,0,0,1-1.29-.74,1.11,1.11,0,0,1,.63-1.26l.12,0c6.26-2.48,12.47-4.9,17.85-8.74a89.22,89.22,0,0,0,7.85-6,77.76,77.76,0,0,0,6.78-7.16,84.15,84.15,0,0,0,10.7-16.59c.7-1.51,1.39-3,2-4.58s1.26-3.11,1.77-4.65a71.12,71.12,0,0,0,2.84-9.55l0-.07a1,1,0,0,1,1.28-.74A1.1,1.1,0,0,1,308.27,32.56Z"/><path class="cls-5" d="M440.53,94c-7.66,7.39-9.11,48.89,21.55,52.28,25.34,2.82,30.64-25,23.76-38.31C477.35,91.53,450.49,84.35,440.53,94Z"/><path class="cls-6" d="M468.56,128.68a70.66,70.66,0,0,0-9-19.14,69.47,69.47,0,0,0-14.25-15.85,85.45,85.45,0,0,0-8.72-6.15c-3.24-1.54-6.35-3.43-9.77-4.44a41.49,41.49,0,0,0-5.07-1.64l-5.2-1.16a31.74,31.74,0,0,0-5.27-.62c-1.78-.15-3.55-.3-5.27-.39a1.07,1.07,0,0,0-1.15,1,1.14,1.14,0,0,0,.87,1.15h.12c6.74,1.3,13.42,2.55,19.54,5.39a88.61,88.61,0,0,1,9,4.49,78.41,78.41,0,0,1,8.14,5.9,84.94,84.94,0,0,1,13.86,14.6c1,1.38,2,2.76,2.89,4.2s1.85,2.88,2.65,4.32a72.2,72.2,0,0,1,4.64,9l.06.06a1,1,0,0,0,1.42.5A1.12,1.12,0,0,0,468.56,128.68Z"/><path class="cls-5" d="M438.64,56.67c-8.91-5.84-18-46.35,11.48-55.36,24.38-7.47,34.74,18.9,30.44,33.24C475.27,52.24,450.2,64.27,438.64,56.67Z"/><path class="cls-6" d="M459.75,17.36a70.73,70.73,0,0,1-5.33,20.48,69.55,69.55,0,0,1-11.07,18.22,86.93,86.93,0,0,1-7.43,7.66c-2.9,2.11-5.6,4.55-8.78,6.18a41.86,41.86,0,0,1-4.68,2.54l-4.89,2.1a31.33,31.33,0,0,1-5.06,1.6c-1.72.47-3.44,1-5.11,1.36a1.07,1.07,0,0,1-1.31-.76,1.14,1.14,0,0,1,.64-1.29l.12,0c6.38-2.53,12.71-5,18.2-8.92a90.76,90.76,0,0,0,8-6.08,78.12,78.12,0,0,0,6.9-7.3,85,85,0,0,0,10.91-16.91c.71-1.54,1.42-3.08,2.06-4.67s1.28-3.17,1.81-4.74a73.49,73.49,0,0,0,2.89-9.74l0-.07a1,1,0,0,1,1.3-.75A1.12,1.12,0,0,1,459.75,17.36Z"/><path class="cls-5" d="M628.88,45.86C622.22,41.25,616,10.27,638.62,4c18.68-5.23,26.08,15,22.55,25.84C656.82,43.15,637.54,51.85,628.88,45.86Z"/><path class="cls-6" d="M647.13,13.35a71,71,0,0,1-5.81,20.35,70,70,0,0,1-11.5,17.95,86.62,86.62,0,0,1-7.62,7.48c-2.94,2-5.71,4.41-8.92,6a42.46,42.46,0,0,1-4.74,2.43l-4.94,2A32.44,32.44,0,0,1,598.5,71c-1.73.43-3.46.87-5.14,1.24a1.08,1.08,0,0,1-1.29-.79,1.13,1.13,0,0,1,.67-1.27l.12,0c6.44-2.38,12.83-4.69,18.41-8.48a88.53,88.53,0,0,0,8.15-5.89,79.41,79.41,0,0,0,7.08-7.13A85.37,85.37,0,0,0,637.81,32c.75-1.52,1.49-3,2.17-4.62s1.36-3.14,1.92-4.69A72.45,72.45,0,0,0,645,13l.05-.07a1,1,0,0,1,1.31-.72A1.12,1.12,0,0,1,647.13,13.35Z"/><path class="cls-5" d="M623.36,93.57c-8.86,5.92-17.67,46.49,11.9,55.29,24.43,7.29,34.6-19.17,30.19-33.47C660,97.74,634.87,85.89,623.36,93.57Z"/><path class="cls-6" d="M644.76,132.73a70.64,70.64,0,0,0-5.48-20.44,69.67,69.67,0,0,0-11.2-18.14,86.77,86.77,0,0,0-7.49-7.6c-2.91-2.09-5.64-4.51-8.82-6.11a42.72,42.72,0,0,0-4.7-2.51l-4.91-2.07a31.29,31.29,0,0,0-5.07-1.55c-1.73-.46-3.45-.93-5.12-1.32a1.05,1.05,0,0,0-1.3.77,1.1,1.1,0,0,0,.65,1.27l.11,0c6.4,2.48,12.75,4.9,18.27,8.78a90.59,90.59,0,0,1,8,6,76.89,76.89,0,0,1,7,7.25,85.16,85.16,0,0,1,11,16.83c.72,1.54,1.44,3.07,2.09,4.65s1.31,3.17,1.84,4.72a72.34,72.34,0,0,1,3,9.73l0,.07a1,1,0,0,0,1.3.74A1.11,1.11,0,0,0,644.76,132.73Z"/><path class="cls-5" d="M809.52,87.78c-6.71,7.84-4.27,48,25.6,48.41,24.69.38,27.22-26.95,19.36-39.12C844.78,82,818.23,77.6,809.52,87.78Z"/><path class="cls-6" d="M839.69,119.1a68.69,68.69,0,0,0-10.48-17.61,67.64,67.64,0,0,0-15.2-14,83.69,83.69,0,0,0-9-5.11c-3.26-1.19-6.43-2.73-9.83-3.38a40,40,0,0,0-5-1.11L785,77.28a30.23,30.23,0,0,0-5.13-.11c-1.73,0-3.45,0-5.12.11a1,1,0,0,0-1,1,1.1,1.1,0,0,0,.94,1h.12c6.61.63,13.17,1.22,19.33,3.39a87.93,87.93,0,0,1,9.08,3.49,77.42,77.42,0,0,1,8.39,4.93A82.38,82.38,0,0,1,826.35,104c1.08,1.24,2.15,2.48,3.18,3.78s2,2.61,3,3.92a71.06,71.06,0,0,1,5.31,8.28l.06.06a1,1,0,0,0,1.41.35A1.1,1.1,0,0,0,839.69,119.1Z"/><path class="cls-5" d="M811.13,63.43c-6.85-7.72-5.16-47.89,24.7-48.88,24.67-.83,27.71,26.44,20.08,38.76C846.49,68.51,820,73.45,811.13,63.43Z"/><path class="cls-6" d="M840.78,32A68.66,68.66,0,0,1,830.63,49.8,67.16,67.16,0,0,1,815.69,64a81.37,81.37,0,0,1-8.88,5.28c-3.24,1.25-6.38,2.85-9.76,3.57a40.58,40.58,0,0,1-5,1.2l-5.11.73a30.17,30.17,0,0,1-5.13.21c-1.73,0-3.45,0-5.12,0a1,1,0,0,1-1-1,1.09,1.09,0,0,1,.93-1h.11c6.6-.76,13.15-1.47,19.26-3.75a87.42,87.42,0,0,0,9-3.67,75.83,75.83,0,0,0,8.3-5.08,82.9,82.9,0,0,0,14.47-13.07c1-1.26,2.1-2.52,3.1-3.84s2-2.64,2.88-4a70.28,70.28,0,0,0,5.16-8.38l.06-.06a1,1,0,0,1,1.4-.37A1.08,1.08,0,0,1,840.78,32Z"/><path class="cls-5" d="M109.75,126c-7.64,7.37-9.08,48.71,21.47,52.09,25.24,2.82,30.52-24.92,23.67-38.16C146.43,123.57,119.67,116.42,109.75,126Z"/><path class="cls-6" d="M137.67,160.59a70.43,70.43,0,0,0-9-19.07,69.69,69.69,0,0,0-14.2-15.8,84.9,84.9,0,0,0-8.7-6.12c-3.22-1.54-6.32-3.42-9.73-4.43a42.33,42.33,0,0,0-5-1.63l-5.18-1.15a30.49,30.49,0,0,0-5.25-.63c-1.77-.15-3.54-.3-5.25-.39a1.07,1.07,0,0,0-1.14,1,1.13,1.13,0,0,0,.87,1.14h.11c6.72,1.3,13.37,2.54,19.47,5.37a91.19,91.19,0,0,1,9,4.47,78.92,78.92,0,0,1,8.11,5.88,85.09,85.09,0,0,1,13.81,14.55c1,1.37,2,2.75,2.88,4.18s1.84,2.87,2.64,4.31a71.56,71.56,0,0,1,4.62,9l.06.06a1,1,0,0,0,1.41.5A1.11,1.11,0,0,0,137.67,160.59Z"/><path class="cls-5" d="M107.86,88.85C99,83,89.91,42.66,119.3,33.68c24.29-7.44,34.62,18.84,30.33,33.12C144.35,84.43,119.38,96.42,107.86,88.85Z"/><path class="cls-6" d="M128.89,49.67a70.57,70.57,0,0,1-5.31,20.41,69.26,69.26,0,0,1-11,18.15,85,85,0,0,1-7.41,7.63c-2.89,2.11-5.58,4.54-8.74,6.16a40.08,40.08,0,0,1-4.67,2.53l-4.87,2.1a31.88,31.88,0,0,1-5.05,1.59c-1.71.47-3.42,1-5.09,1.35a1.07,1.07,0,0,1-1.3-.75,1.14,1.14,0,0,1,.64-1.28l.12,0c6.35-2.52,12.66-5,18.13-8.88a90.58,90.58,0,0,0,8-6.06,78.94,78.94,0,0,0,6.88-7.28,84.56,84.56,0,0,0,10.87-16.85c.71-1.53,1.41-3.07,2-4.65s1.28-3.16,1.8-4.72a71.87,71.87,0,0,0,2.88-9.7l0-.07a1,1,0,0,1,1.29-.75A1.11,1.11,0,0,1,128.89,49.67Z"/><path class="cls-7" d="M227.38,89s9.1-3.58,13.59,6.87-6.33,22.73-21.83,18.08c0,0,4.18,18.94-12.46,21.22s-21.29-21.43-21.29-21.43-24.16,4.09-27.92-12.19S177.2,87.67,177.2,87.67s-9.92-11.87-1.6-19.13c10.68-9.24,24.92,5.59,24.92,5.59s6.66-15.31,19.91-11.1C235.85,68.14,227.38,89,227.38,89Z"/><path class="cls-3" d="M186.83,98.27c0-5.21,5.71-9.48,12.85-9.55s13,4.11,13,9.32-5.7,9.48-12.85,9.54S186.88,103.47,186.83,98.27Z"/><path class="cls-4" d="M206,79.69a13.8,13.8,0,0,1,.66-1.94,10,10,0,0,1,1.76-2.7,23.17,23.17,0,0,1,4.67-4,3.33,3.33,0,0,1,4.2.62,2.86,2.86,0,0,1,2.1.42,4.24,4.24,0,0,1,.69.56,2.77,2.77,0,0,1,1.4,0A3.57,3.57,0,0,1,224,75.88a19.72,19.72,0,0,1-.9,7.07,13.62,13.62,0,0,1-1.54,3.41A13,13,0,0,1,219,89.27a2.6,2.6,0,0,1-3.35.25,2.5,2.5,0,0,1-1-1.81,3,3,0,0,1-2.33-.35,4.52,4.52,0,0,1-1.07-1h-.39a3.46,3.46,0,0,1-2.54-1.76,3.15,3.15,0,0,1-2.3-2.22A7.59,7.59,0,0,1,206,79.69Z"/><path class="cls-4" d="M180,78.05a3.26,3.26,0,0,1,1.52-2.7,2.89,2.89,0,0,1,2.66-.18,3,3,0,0,1,1-1.93,2.6,2.6,0,0,1,2.74-.73,18.33,18.33,0,0,1,5.71,3.37,14.46,14.46,0,0,1,2.06,2.22,6.57,6.57,0,0,1,.84,1.34,4.52,4.52,0,0,1,.44,1.1A3.2,3.2,0,0,1,197,82a2.2,2.2,0,0,1-2.6,1.51c-.08,0-.16-.08-.23-.08a2.26,2.26,0,0,1-.65,1A4.05,4.05,0,0,1,190,85.72a2.55,2.55,0,0,1-.33,1.31,3.13,3.13,0,0,1-3.38,1.42,6.25,6.25,0,0,1-3.08-1.84,11.73,11.73,0,0,1-1.91-2.45A11.06,11.06,0,0,1,180,78.05Z"/><path class="cls-4" d="M221.72,95.63a1,1,0,0,1-.14-.47,2.08,2.08,0,0,1,1-2.08,4,4,0,0,1,1.88-.75,20.77,20.77,0,0,1,2.19-.27,11.55,11.55,0,0,1,2.34.19,5.77,5.77,0,0,1,1.93.58,4.65,4.65,0,0,1,1,.72,3.77,3.77,0,0,1,.79,4.15,3.51,3.51,0,0,1-1,1.38,8,8,0,0,1-2.52,1.44,4.79,4.79,0,0,1-1.41.44,20.29,20.29,0,0,1-2.43.35,13.43,13.43,0,0,1-2.49-.2l-.77-.33a2.29,2.29,0,0,1-.92-.79,3.09,3.09,0,0,1-.75-2A4.09,4.09,0,0,1,221.72,95.63Z"/><path class="cls-4" d="M198.36,116.42a5.79,5.79,0,0,1,.73-1.55,2,2,0,0,1,1.66-1.06,2.32,2.32,0,0,1,1.86.58,3.83,3.83,0,0,1,.53.55,9,9,0,0,1,.72-.84,3,3,0,0,1,3.13-.65c.07,0,.15.08.23.09a1.48,1.48,0,0,1,.48-.54,2.13,2.13,0,0,1,2.8.13,9.72,9.72,0,0,1,1.28,11.09,2.7,2.7,0,0,1-4.22.55c-.07,0-.07-.08-.07-.16v.08a3.65,3.65,0,0,1-4.25,2.1,4.51,4.51,0,0,1-2.84-2.62,22.9,22.9,0,0,1-1.27-3.06,13,13,0,0,1-.65-2.43A4.15,4.15,0,0,1,198.36,116.42Z"/><path class="cls-4" d="M166.55,99.33a4.68,4.68,0,0,1-.77-.56,2.93,2.93,0,0,1-1.43-2.44,2.89,2.89,0,0,1,1.36-2.47,14.59,14.59,0,0,1,6-1.69,20.49,20.49,0,0,1,3,.13,12.39,12.39,0,0,1,2.95.91,2.36,2.36,0,0,1,1,2.9,2,2,0,0,1-1.58,1.3,3.11,3.11,0,0,1,1.66,2.76,3.34,3.34,0,0,1-.65,1.93,3.48,3.48,0,0,1,2.12,3.16,3.62,3.62,0,0,1-.5,1.78,3.8,3.8,0,0,1-2.05,1.6,7.18,7.18,0,0,1-3.2.18,15.58,15.58,0,0,1-3.19-.6c-1-.33-1.93-.74-2.86-1.14a7.6,7.6,0,0,1-2.39-1.68,4.11,4.11,0,0,1-.05-5.62C166.16,99.63,166.39,99.48,166.55,99.33Z"/><path class="cls-7" d="M542.13,63.05s6.54-2.57,9.76,4.94-4.54,16.32-15.68,13c0,0,3,13.61-9,15.24S512,80.82,512,80.82s-17.35,2.94-20.05-8.75,14.17-9.94,14.17-9.94-7.13-8.52-1.15-13.74c7.67-6.63,17.9,4,17.9,4s4.78-11,14.3-8C548.22,48.1,542.13,63.05,542.13,63.05Z"/><path class="cls-3" d="M513,69.74c0-3.74,4.1-6.81,9.23-6.85s9.32,3,9.35,6.69-4.1,6.81-9.23,6.85S513,73.48,513,69.74Z"/><path class="cls-4" d="M526.8,56.4a9.45,9.45,0,0,1,.47-1.39,7.19,7.19,0,0,1,1.26-1.94,17,17,0,0,1,3.36-2.91,2.39,2.39,0,0,1,3,.45,2.12,2.12,0,0,1,1.51.3,3,3,0,0,1,.5.41,2.11,2.11,0,0,1,1,0,2.59,2.59,0,0,1,1.81,2.33,14.36,14.36,0,0,1-.65,5.08A9.36,9.36,0,0,1,538,61.19a9.08,9.08,0,0,1-1.83,2.09,1.85,1.85,0,0,1-2.41.18,1.79,1.79,0,0,1-.7-1.3,2.2,2.2,0,0,1-1.68-.25,3.35,3.35,0,0,1-.77-.74h-.28a2.48,2.48,0,0,1-1.82-1.26,2.27,2.27,0,0,1-1.65-1.6A5.26,5.26,0,0,1,526.8,56.4Z"/><path class="cls-4" d="M508.12,55.23a2.32,2.32,0,0,1,1.1-1.94,2.05,2.05,0,0,1,1.9-.14,2.24,2.24,0,0,1,.7-1.39,1.89,1.89,0,0,1,2-.52,13.49,13.49,0,0,1,4.1,2.42,10.22,10.22,0,0,1,1.48,1.6,4.59,4.59,0,0,1,.6,1,3.27,3.27,0,0,1,.32.79,2.22,2.22,0,0,1,0,1.06,1.59,1.59,0,0,1-1.87,1.09s-.11-.06-.16-.06a1.66,1.66,0,0,1-.46.72,2.92,2.92,0,0,1-2.48.91,1.94,1.94,0,0,1-.24,1,2.28,2.28,0,0,1-2.43,1,4.52,4.52,0,0,1-2.21-1.33,8.19,8.19,0,0,1-1.37-1.76A7.93,7.93,0,0,1,508.12,55.23Z"/><path class="cls-4" d="M538.07,67.85a.72.72,0,0,1-.11-.34,1.53,1.53,0,0,1,.7-1.5,3,3,0,0,1,1.35-.53c.51-.1,1.07-.15,1.57-.2a9.45,9.45,0,0,1,1.68.14,4.15,4.15,0,0,1,1.39.42,3.49,3.49,0,0,1,.72.52,2.63,2.63,0,0,1,.76,1.52,2.58,2.58,0,0,1-.19,1.46,2.54,2.54,0,0,1-.69,1,6.05,6.05,0,0,1-1.81,1,3.65,3.65,0,0,1-1,.32c-.56.1-1.12.2-1.74.25a10.39,10.39,0,0,1-1.79-.14l-.55-.24a1.6,1.6,0,0,1-.66-.57,2.22,2.22,0,0,1-.54-1.41A3,3,0,0,1,538.07,67.85Z"/><path class="cls-4" d="M521.29,82.78a4,4,0,0,1,.52-1.11,1.47,1.47,0,0,1,1.19-.76,1.69,1.69,0,0,1,1.34.41,3.45,3.45,0,0,1,.38.4,4.49,4.49,0,0,1,.52-.6,2.09,2.09,0,0,1,2.24-.47c.06,0,.11.06.17.06a1.07,1.07,0,0,1,.34-.39,1.55,1.55,0,0,1,2,.1,7,7,0,0,1,.92,8,1.94,1.94,0,0,1-3,.4c-.06,0-.06-.06-.06-.12v.06a2.61,2.61,0,0,1-3.05,1.51,3.25,3.25,0,0,1-2-1.88,17,17,0,0,1-.91-2.2,9.1,9.1,0,0,1-.47-1.74A3,3,0,0,1,521.29,82.78Z"/><path class="cls-4" d="M498.44,70.5a2.84,2.84,0,0,1-.55-.4,2,2,0,0,1-.05-3.53,10.54,10.54,0,0,1,4.33-1.21,14.41,14.41,0,0,1,2.18.1,8.88,8.88,0,0,1,2.12.65,1.7,1.7,0,0,1,.69,2.09,1.5,1.5,0,0,1-1.14.93,2.26,2.26,0,0,1,1.2,2,2.52,2.52,0,0,1-.47,1.39,2.49,2.49,0,0,1,1.52,2.27,2.55,2.55,0,0,1-.36,1.28,2.76,2.76,0,0,1-1.47,1.15,5.38,5.38,0,0,1-2.3.12,10.86,10.86,0,0,1-2.29-.43c-.72-.24-1.39-.53-2.05-.82a5.21,5.21,0,0,1-1.72-1.21,3,3,0,0,1,0-4C498.16,70.72,498.33,70.61,498.44,70.5Z"/><path class="cls-2" d="M376.85,88.14s10.9,9.93,3.68,16.61c-8.84,8.24-20.11-3.54-20.11-3.54a14.08,14.08,0,0,1-17.3,3.72c-10.8-5-4.35-18.26-4.35-18.26S327.16,80.55,330,68.58c2.31-9.8,13.34-12.68,20.16-4.91,0,0,1.56-17.85,14.71-17.27s8.95,16.35,7.17,21.49c0,0,15.88-4.29,18.29,7.83S379.91,88.89,376.85,88.14Z"/><path class="cls-3" d="M354.7,85c-5.31-3.41-7.62-9.28-5.17-13.11s8.76-4.18,14.07-.78,7.63,9.28,5.17,13.11S360,88.44,354.7,85Z"/><path class="cls-4" d="M375.22,79.22A2.19,2.19,0,0,1,376.3,77l3.21-1.59c-.25-.05-.49-.15-.74-.21a.38.38,0,0,1-.2,0c.4.1-.4-.06-.54-.06h-1.3a1.6,1.6,0,0,1-1.42-.92,1.51,1.51,0,0,1,.28-1.69,4.69,4.69,0,0,1,2.35-1.1,7.18,7.18,0,0,1,2.73.15c1.59.33,3.51.91,4.43,2.31a2.92,2.92,0,0,1-.26,3.58,4.56,4.56,0,0,1-1.11.82,4.91,4.91,0,0,1,.83.66,3.57,3.57,0,0,1,.89,3.4c-.63,2.07-2.78,2.68-4.77,2.64a6.09,6.09,0,0,1-2.82-.59,5.08,5.08,0,0,1-1.08-.72,6.46,6.46,0,0,1-.49-.6,1.66,1.66,0,0,1-.23-.7c0,.1,0,.1-.05,0a1.47,1.47,0,0,1,.22-1.34A2.52,2.52,0,0,1,375.22,79.22Z"/><path class="cls-4" d="M368.94,94.16a1.88,1.88,0,0,1,.57-1.18,2.13,2.13,0,0,1,2.59-.35c.34.25.69.46,1,.71-.39-.55-.78-1.1-1.11-1.66a1.61,1.61,0,0,1,.38-2.08,1.6,1.6,0,0,1,2.09.09A15.93,15.93,0,0,1,377.71,93a7.29,7.29,0,0,1,1.55,4.55,2.68,2.68,0,0,1-2.07,2.34,2.91,2.91,0,0,1-1.44,0c.18.55.32,1.1.46,1.65.28,1.29-.6,3-2.08,2.79a5.09,5.09,0,0,1-2.23-.74,2.1,2.1,0,0,1-3.68.29,24.91,24.91,0,0,1-1.81-4.06,12,12,0,0,1-.87-4.34A2,2,0,0,1,368.94,94.16Z"/><path class="cls-4" d="M344.94,94.78a16.15,16.15,0,0,1,1.79-3.15,2.06,2.06,0,0,1,2.8-.75,2.41,2.41,0,0,1,1.06,1.81,2,2,0,0,1,2.09,2.42,16.86,16.86,0,0,0-.33,1.69c.21-.35.46-.74.67-1.08l.31-.59s.1-.2.1-.25a1.49,1.49,0,0,0,.11-.4c.15-.54.26-1,.42-1.58a1.47,1.47,0,0,1,2.83,0,6.18,6.18,0,0,1,.13,1.35c-.06.39-.12.84-.17,1.23a9.65,9.65,0,0,1-.74,2.28,9.79,9.79,0,0,1-2.65,3.53c-.85.73-1.86,1.55-3.05,1.28-1.38-.32-1.76-1.57-1.89-2.86a2.47,2.47,0,0,1-.95.43,2.57,2.57,0,0,1-2.86-1.2C343.69,97.59,344.37,96.11,344.94,94.78Z"/><path class="cls-4" d="M356.42,58a17.12,17.12,0,0,1,2.41-3.88,2,2,0,0,1,2.09-.51,2.14,2.14,0,0,1,3.66.71,6.8,6.8,0,0,1,.22,2l1-1.12a2.1,2.1,0,0,1,2.2-.46,2.06,2.06,0,0,1,1.25,1.81,19.37,19.37,0,0,1-.29,5.11,12.91,12.91,0,0,1-.69,2.47A5.25,5.25,0,0,1,367,66.36a1.4,1.4,0,0,1-2.36-1,3.82,3.82,0,0,1,.12-1.34c.05-.2.06-.4.11-.54s.11-.6.05-.3c0-.15.06-.3.06-.45a12.38,12.38,0,0,0-.72,1.23,2,2,0,0,1-3.52,0,6.27,6.27,0,0,1-.38-1,2.11,2.11,0,0,1-1.45.32,1.56,1.56,0,0,1-.31.39,1.82,1.82,0,0,1-1.84.52A1.86,1.86,0,0,1,355.39,63C354.82,61.42,355.75,59.45,356.42,58Z"/><path class="cls-4" d="M338.83,66.55a1.76,1.76,0,0,1,.81-.63c.15,0,.25-.1.4-.14a5.69,5.69,0,0,1-.28-1,2.26,2.26,0,0,1,0-1,2.74,2.74,0,0,1,.47-.83,1.93,1.93,0,0,1,1.84-.52,11.92,11.92,0,0,1,1.78.58,6.69,6.69,0,0,1,1.28.72,7,7,0,0,1,2.29,2.67A1.23,1.23,0,0,1,347.1,68a1.2,1.2,0,0,1-1.59-.08l-.05,0c.24.45.53,1,.77,1.41a2.22,2.22,0,0,1-.29,2.57,2,2,0,0,1-.9.53,2.4,2.4,0,0,1-1.64-.17c-.69-.46-1.37-.92-2.11-1.38-.35-.21-.69-.46-1-.67a5.24,5.24,0,0,1-1.62-1.37A2.11,2.11,0,0,1,338.83,66.55Z"/><path class="cls-8" d="M989.67,163.55c-2.89,7-14.86,12.89-23.3,8.1a16.46,16.46,0,0,0,6-2.43c15.84-10.68,8.81-20.09,8.81-20.09a51.24,51.24,0,0,0,8,.35C989.4,150.1,992.3,156.8,989.67,163.55Z"/><path class="cls-9" d="M995.53,167.79s-1.81,10.81-12.47,14.87c-10.31,4-17.85.12-18.36-.21a17.23,17.23,0,0,0-5.31-10.15l.17-.79a20,20,0,0,0,6.73.08c8.51,4.71,20.49-1,23.3-8.11,2.71-6.68-.26-13.44-.51-14.06,5.23-.19,12-1.17,16.56-4.86a16.61,16.61,0,0,1-.56,15C1000.82,167.39,995.53,167.79,995.53,167.79Z"/><path class="cls-10" d="M993.28,183s-3.92,23.62-30.13,12.21a25.9,25.9,0,0,0,1.62-12.71c.52.32,8.05,4,18.36.21,10.73-4.14,12.48-14.87,12.48-14.87s5.28-.4,9.54-8.25a16.58,16.58,0,0,0,.56-15,12.87,12.87,0,0,0,4.56-6.52c1.73-5.28-1.56-10.31-7.5-14.62,36.09,22.13,13.42,34.66,13.42,34.66s6.44,12.49.08,19.69C1005.41,190,993.28,183,993.28,183Z"/><path class="cls-11" d="M964.71,182.59a25.37,25.37,0,0,1-1.62,12.72s-7.64,1.39-22.2-11.74c-19.65-17.62-13.83-46-12.07-53.09l.07.07A30.89,30.89,0,0,0,934,155.88s12.59,13.38,25.56,15.77l-.16.79A17.23,17.23,0,0,1,964.71,182.59Z"/><path class="cls-12" d="M1010.2,138.19a14.46,14.46,0,0,1-4.55,6.51c-4.59,3.69-11.26,4.74-16.57,4.86a50.33,50.33,0,0,1-8-.36s7,9.41-8.82,20.1a15.05,15.05,0,0,1-6,2.43,18.2,18.2,0,0,1-6.74-.08c-13-2.24-25.56-15.77-25.56-15.77a30.89,30.89,0,0,1-5.11-25.33c2.76-10.38,12.21-19.11,31.11-19.36,13.73-.14,32.11,4.88,42.56,12.24l.15.13C1008.63,127.73,1012,132.83,1010.2,138.19Z"/><path class="cls-4" d="M967.08,146.67a10.59,10.59,0,0,0,1.11-9.56,59,59,0,0,0,6.11.19c3-.05,6.15-.17,8.59-2a7.13,7.13,0,0,0,2.39-8.3c-2-5.47-9.59-7.27-14.63-8.52a31.37,31.37,0,0,0-16.35.24,2.33,2.33,0,0,0-1.16.71,5.25,5.25,0,0,0-2.5,1.92c-1.38,1.86-1.56,4.63-2.07,6.72s-.94,4.24-1.45,6.33c-1.14,4.46-2.14,8.91-3.28,13.38a4.24,4.24,0,0,0,3.56,4.88C954.62,153.54,962.84,153.59,967.08,146.67Z"/><path class="cls-1" d="M1824.82,119.62C1525.22,79.29,916,26.2,876,136.53"/><path class="cls-2" d="M1091.22,82.53s-13.75,12.53-4.64,21C1097.74,113.87,1112,99,1112,99a17.76,17.76,0,0,0,21.83,4.68c13.61-6.25,5.48-23,5.48-23s14.65-7.72,11.06-22.82c-2.92-12.36-16.83-16-25.43-6.19,0,0-2-22.53-18.56-21.79S1095,50.5,1097.29,57c0,0-20-5.41-23.08,9.87S1087.35,83.48,1091.22,82.53Z"/><path class="cls-3" d="M1119.16,78.61c6.7-4.29,9.62-11.7,6.52-16.53s-11-5.28-17.75-1-9.62,11.7-6.52,16.53S1112.46,82.91,1119.16,78.61Z"/><path class="cls-4" d="M1093.28,71.28a2.79,2.79,0,0,0-1.37-2.86c-1.33-.67-2.72-1.33-4-2,.31-.07.62-.2.93-.27a.48.48,0,0,0,.25-.06c-.5.13.5-.07.69-.08h.5l1.13,0a2,2,0,0,0,1.79-1.16,1.88,1.88,0,0,0-.35-2.12,5.92,5.92,0,0,0-3-1.39,9.08,9.08,0,0,0-3.44.19c-2,.41-4.43,1.14-5.59,2.92a3.67,3.67,0,0,0,.33,4.5,5.8,5.8,0,0,0,1.4,1,7.16,7.16,0,0,0-1,.84,4.49,4.49,0,0,0-1.12,4.28c.8,2.62,3.51,3.38,6,3.34a7.67,7.67,0,0,0,3.56-.76,6.29,6.29,0,0,0,1.36-.9,6.77,6.77,0,0,0,.61-.76,2.19,2.19,0,0,0,.3-.88c0,.12,0,.12.06-.07a1.82,1.82,0,0,0-.28-1.68A3.18,3.18,0,0,0,1093.28,71.28Z"/><path class="cls-4" d="M1101.2,90.12a2.41,2.41,0,0,0-.72-1.49,2.68,2.68,0,0,0-3.27-.44c-.43.32-.86.58-1.3.9.49-.7,1-1.4,1.41-2.09a2,2,0,0,0-.49-2.63,2,2,0,0,0-2.63.11,19.71,19.71,0,0,0-4.06,4.15c-1.1,1.58-2.19,3.8-2,5.74a3.4,3.4,0,0,0,2.62,3,3.56,3.56,0,0,0,1.81,0c-.23.7-.41,1.39-.59,2.08-.34,1.64.76,3.75,2.64,3.53a6.41,6.41,0,0,0,2.8-.93c.85,1.74,3.55,2.32,4.64.36a30.81,30.81,0,0,0,2.29-5.12,15.25,15.25,0,0,0,1.1-5.47A2.47,2.47,0,0,0,1101.2,90.12Z"/><path class="cls-4" d="M1131.48,90.9a20.91,20.91,0,0,0-2.26-4,2.59,2.59,0,0,0-3.53-.94,3,3,0,0,0-1.34,2.28,2.49,2.49,0,0,0-2.64,3c.14.69.34,1.38.42,2.13-.26-.44-.59-.93-.84-1.37l-.39-.74c0-.06-.13-.25-.13-.31a1.57,1.57,0,0,1-.14-.5c-.2-.69-.33-1.31-.53-2a1.87,1.87,0,0,0-3.58,0,8.14,8.14,0,0,0-.15,1.7c.07.5.14,1.06.21,1.56a11.74,11.74,0,0,0,.93,2.87,12.3,12.3,0,0,0,3.34,4.45c1.08.92,2.35,2,3.85,1.62,1.75-.4,2.22-2,2.38-3.61a3,3,0,0,0,1.2.54,3.26,3.26,0,0,0,3.61-1.5C1133.05,94.44,1132.2,92.58,1131.48,90.9Z"/><path class="cls-4" d="M1117,44.47a22,22,0,0,0-3-4.9,2.52,2.52,0,0,0-2.65-.64,2.7,2.7,0,0,0-4.62.9,9,9,0,0,0-.27,2.51l-1.27-1.42a2.65,2.65,0,0,0-2.77-.58,2.6,2.6,0,0,0-1.59,2.29,24.41,24.41,0,0,0,.37,6.45,16.48,16.48,0,0,0,.87,3.11,6.62,6.62,0,0,0,1.68,2.86,1.77,1.77,0,0,0,3-1.25,5.39,5.39,0,0,0-.15-1.69c-.07-.25-.08-.5-.14-.68s-.14-.75-.07-.38c0-.19-.07-.37-.07-.56a12.32,12.32,0,0,1,.9,1.55c.91,1.61,3.61,1.81,4.45,0a9.87,9.87,0,0,0,.48-1.19,2.65,2.65,0,0,0,1.83.4,2.36,2.36,0,0,0,.38.5,2.28,2.28,0,0,0,2.33.64,2.33,2.33,0,0,0,1.66-1.65C1119,48.82,1117.84,46.33,1117,44.47Z"/><path class="cls-4" d="M1139.18,55.29a2.15,2.15,0,0,0-1-.8c-.19-.05-.31-.11-.5-.17a7.76,7.76,0,0,0,.35-1.2,2.83,2.83,0,0,0,0-1.26,3.39,3.39,0,0,0-.58-1,2.44,2.44,0,0,0-2.33-.65,14.63,14.63,0,0,0-2.24.73,8.09,8.09,0,0,0-1.62.91,8.78,8.78,0,0,0-2.88,3.37,1.54,1.54,0,0,0,.35,2,1.52,1.52,0,0,0,2-.1l.06-.06c-.3.57-.66,1.2-1,1.77a2.85,2.85,0,0,0,.37,3.25,2.64,2.64,0,0,0,1.14.67,3,3,0,0,0,2.07-.22c.86-.58,1.73-1.16,2.66-1.74.44-.26.87-.58,1.24-.84a7,7,0,0,0,2-1.73A2.67,2.67,0,0,0,1139.18,55.29Z"/><path class="cls-5" d="M1536,106.05c7.52,7.26,8.94,48-21.14,51.29-24.85,2.77-30.05-24.54-23.3-37.58C1499.92,103.67,1526.26,96.63,1536,106.05Z"/><path class="cls-6" d="M1508.54,140.11a69.4,69.4,0,0,1,8.85-18.77,68.41,68.41,0,0,1,14-15.55,83.35,83.35,0,0,1,8.56-6c3.18-1.51,6.23-3.37,9.58-4.36a41.69,41.69,0,0,1,5-1.6l5.1-1.14a30.57,30.57,0,0,1,5.16-.62c1.75-.14,3.49-.29,5.18-.38a1,1,0,0,1,1.12,1,1.1,1.1,0,0,1-.85,1.12h-.12c-6.61,1.28-13.16,2.51-19.16,5.29a89.62,89.62,0,0,0-8.83,4.4,77.94,77.94,0,0,0-8,5.79,82.78,82.78,0,0,0-13.59,14.32c-1,1.36-1.93,2.71-2.84,4.13s-1.81,2.82-2.6,4.23a70.81,70.81,0,0,0-4.55,8.87l-.06.06a1,1,0,0,1-1.39.49A1.1,1.1,0,0,1,1508.54,140.11Z"/><path class="cls-5" d="M1537.92,71.13c8.73-5.74,17.67-45.47-11.27-54.32-23.91-7.32-34.08,18.55-29.86,32.61C1502,66.77,1526.58,78.58,1537.92,71.13Z"/><path class="cls-6" d="M1517.21,32.56a69.5,69.5,0,0,0,5.23,20.09,68.54,68.54,0,0,0,10.85,17.87,83.72,83.72,0,0,0,7.3,7.51c2.84,2.08,5.49,4.47,8.61,6.06a40.35,40.35,0,0,0,4.59,2.5l4.8,2.06a31.1,31.1,0,0,0,5,1.57c1.69.46,3.37.93,5,1.33a1.05,1.05,0,0,0,1.29-.74,1.11,1.11,0,0,0-.63-1.26l-.12,0c-6.26-2.48-12.47-4.9-17.85-8.74a87.76,87.76,0,0,1-7.85-6,76.43,76.43,0,0,1-6.78-7.16,83.25,83.25,0,0,1-10.7-16.59c-.7-1.51-1.4-3-2-4.58s-1.26-3.11-1.78-4.65a72.55,72.55,0,0,1-2.83-9.55l0-.07a1,1,0,0,0-1.28-.74A1.1,1.1,0,0,0,1517.21,32.56Z"/><path class="cls-5" d="M1385,94c7.66,7.39,9.11,48.89-21.55,52.28-25.34,2.82-30.64-25-23.76-38.31C1348.13,91.53,1375,84.35,1385,94Z"/><path class="cls-6" d="M1356.92,128.68a70.66,70.66,0,0,1,9-19.14,69.24,69.24,0,0,1,14.25-15.85,85.45,85.45,0,0,1,8.72-6.15c3.24-1.54,6.35-3.43,9.77-4.44a41.49,41.49,0,0,1,5.07-1.64l5.2-1.16a31.74,31.74,0,0,1,5.27-.62c1.77-.15,3.55-.3,5.27-.39a1.05,1.05,0,0,1,1.14,1,1.12,1.12,0,0,1-.87,1.15h-.11c-6.74,1.3-13.42,2.55-19.54,5.39a88.61,88.61,0,0,0-9,4.49,78.41,78.41,0,0,0-8.14,5.9,84.94,84.94,0,0,0-13.86,14.6c-1,1.38-2,2.76-2.89,4.2s-1.85,2.88-2.65,4.32a70.88,70.88,0,0,0-4.64,9l-.06.06a1,1,0,0,1-1.42.5A1.12,1.12,0,0,1,1356.92,128.68Z"/><path class="cls-5" d="M1386.84,56.67c8.91-5.84,18-46.35-11.48-55.36-24.38-7.47-34.74,18.9-30.45,33.24C1350.21,52.24,1375.28,64.27,1386.84,56.67Z"/><path class="cls-6" d="M1365.73,17.36a70.73,70.73,0,0,0,5.33,20.48,69.55,69.55,0,0,0,11.07,18.22,85.53,85.53,0,0,0,7.43,7.66c2.9,2.11,5.6,4.55,8.78,6.18a41,41,0,0,0,4.68,2.54l4.89,2.1a31,31,0,0,0,5.06,1.6c1.72.47,3.44,1,5.11,1.36a1.07,1.07,0,0,0,1.31-.76,1.15,1.15,0,0,0-.64-1.29l-.12,0c-6.38-2.53-12.71-5-18.2-8.92a89.31,89.31,0,0,1-8-6.08,78.12,78.12,0,0,1-6.9-7.3,85,85,0,0,1-10.91-16.91c-.71-1.54-1.42-3.08-2.06-4.67s-1.29-3.17-1.81-4.74a72,72,0,0,1-2.89-9.74l0-.07a1,1,0,0,0-1.3-.75A1.12,1.12,0,0,0,1365.73,17.36Z"/><path class="cls-5" d="M1196.6,45.86c6.66-4.61,12.86-35.59-9.75-41.91-18.67-5.23-26.07,15-22.54,25.84C1168.66,43.15,1187.94,51.85,1196.6,45.86Z"/><path class="cls-6" d="M1178.35,13.35a71,71,0,0,0,5.81,20.35,70,70,0,0,0,11.5,17.95,86.62,86.62,0,0,0,7.62,7.48c2.94,2,5.71,4.41,8.92,6a42.46,42.46,0,0,0,4.74,2.43l4.94,2A32.44,32.44,0,0,0,1227,71c1.73.43,3.46.87,5.14,1.24a1.08,1.08,0,0,0,1.29-.79,1.13,1.13,0,0,0-.68-1.27l-.11,0c-6.44-2.38-12.83-4.69-18.41-8.48a88.53,88.53,0,0,1-8.15-5.89,79.41,79.41,0,0,1-7.08-7.13A85.37,85.37,0,0,1,1187.67,32c-.75-1.52-1.49-3-2.17-4.62s-1.36-3.14-1.92-4.69a72.45,72.45,0,0,1-3.12-9.67l0-.07a1,1,0,0,0-1.31-.72A1.12,1.12,0,0,0,1178.35,13.35Z"/><path class="cls-5" d="M1202.12,93.57c8.86,5.92,17.67,46.49-11.9,55.29-24.43,7.29-34.6-19.17-30.19-33.47C1165.46,97.74,1190.61,85.89,1202.12,93.57Z"/><path class="cls-6" d="M1180.72,132.73a70.64,70.64,0,0,1,5.48-20.44,69.67,69.67,0,0,1,11.2-18.14,86.77,86.77,0,0,1,7.49-7.6c2.91-2.09,5.63-4.51,8.82-6.11a41.83,41.83,0,0,1,4.7-2.51l4.91-2.07a31.29,31.29,0,0,1,5.07-1.55c1.72-.46,3.45-.93,5.12-1.32a1.05,1.05,0,0,1,1.3.77,1.1,1.1,0,0,1-.65,1.27l-.12,0c-6.39,2.48-12.74,4.9-18.26,8.78a89.16,89.16,0,0,0-8,6,76.89,76.89,0,0,0-7,7.25,85.16,85.16,0,0,0-11,16.83c-.72,1.54-1.44,3.07-2.09,4.65s-1.31,3.17-1.85,4.72a73.76,73.76,0,0,0-3,9.73l0,.07a1,1,0,0,1-1.31.74A1.11,1.11,0,0,1,1180.72,132.73Z"/><path class="cls-5" d="M1016,87.78c6.71,7.84,4.27,48-25.61,48.41-24.68.38-27.21-26.95-19.35-39.12C980.69,82,1007.25,77.6,1016,87.78Z"/><path class="cls-6" d="M985.79,119.1a68.69,68.69,0,0,1,10.48-17.61,67.64,67.64,0,0,1,15.2-14,83.69,83.69,0,0,1,9-5.11c3.26-1.19,6.43-2.73,9.83-3.38a40,40,0,0,1,5-1.11l5.11-.64a30.38,30.38,0,0,1,5.14-.11c1.73,0,3.45,0,5.12.11a1,1,0,0,1,1,1,1.11,1.11,0,0,1-.94,1h-.12c-6.61.63-13.17,1.22-19.33,3.39a87.93,87.93,0,0,0-9.08,3.49,78.52,78.52,0,0,0-8.4,4.93,82.66,82.66,0,0,0-14.7,12.8c-1.08,1.24-2.15,2.48-3.18,3.78s-2.05,2.61-3,3.92a71.15,71.15,0,0,0-5.32,8.28l-.06.06a1,1,0,0,1-1.41.35A1.11,1.11,0,0,1,985.79,119.1Z"/><path class="cls-5" d="M1014.35,63.43c6.85-7.72,5.16-47.89-24.7-48.88C965,13.72,961.93,41,969.57,53.31,979,68.51,1005.45,73.45,1014.35,63.43Z"/><path class="cls-6" d="M984.7,32A68.92,68.92,0,0,0,994.84,49.8,67.21,67.21,0,0,0,1009.79,64a81.37,81.37,0,0,0,8.88,5.28c3.24,1.25,6.38,2.85,9.76,3.57a40.15,40.15,0,0,0,5,1.2l5.11.73a30.17,30.17,0,0,0,5.13.21c1.72,0,3.45,0,5.12,0a1,1,0,0,0,1-1,1.09,1.09,0,0,0-.93-1h-.11c-6.6-.76-13.15-1.47-19.26-3.75a87.42,87.42,0,0,1-9-3.67,75.83,75.83,0,0,1-8.3-5.08,82.9,82.9,0,0,1-14.47-13.07c-1-1.26-2.1-2.52-3.1-3.84s-2-2.64-2.89-4a71.51,71.51,0,0,1-5.15-8.38l-.06-.06a1,1,0,0,0-1.41-.37A1.08,1.08,0,0,0,984.7,32Z"/><path class="cls-5" d="M1715.73,126c7.64,7.37,9.08,48.71-21.47,52.09-25.24,2.82-30.52-24.92-23.67-38.16C1679.05,123.57,1705.81,116.42,1715.73,126Z"/><path class="cls-6" d="M1687.8,160.59a70.75,70.75,0,0,1,9-19.07,69.45,69.45,0,0,1,14.2-15.8,84.78,84.78,0,0,1,8.69-6.12c3.23-1.54,6.33-3.42,9.74-4.43a42.33,42.33,0,0,1,5-1.63l5.18-1.15a30.49,30.49,0,0,1,5.25-.63c1.77-.15,3.54-.3,5.25-.39a1.07,1.07,0,0,1,1.14,1,1.13,1.13,0,0,1-.87,1.14h-.11c-6.72,1.3-13.37,2.54-19.47,5.37a90.1,90.1,0,0,0-9,4.47,77.85,77.85,0,0,0-8.11,5.88A84.71,84.71,0,0,0,1700,143.77c-1,1.37-2,2.75-2.88,4.18s-1.84,2.87-2.64,4.31a71.56,71.56,0,0,0-4.62,9l-.06.06a1,1,0,0,1-1.41.5A1.12,1.12,0,0,1,1687.8,160.59Z"/><path class="cls-5" d="M1717.62,88.85c8.87-5.83,18-46.19-11.44-55.17-24.29-7.44-34.62,18.84-30.33,33.12C1681.13,84.43,1706.1,96.42,1717.62,88.85Z"/><path class="cls-6" d="M1696.59,49.67a70.57,70.57,0,0,0,5.31,20.41,69.26,69.26,0,0,0,11,18.15,85,85,0,0,0,7.41,7.63c2.88,2.11,5.58,4.54,8.74,6.16a40.08,40.08,0,0,0,4.67,2.53l4.87,2.1a31.88,31.88,0,0,0,5.05,1.59c1.71.47,3.42,1,5.08,1.35a1.07,1.07,0,0,0,1.31-.75,1.14,1.14,0,0,0-.64-1.28l-.12,0c-6.35-2.52-12.66-5-18.13-8.88a90.58,90.58,0,0,1-8-6.06,78.94,78.94,0,0,1-6.88-7.28,84.56,84.56,0,0,1-10.87-16.85c-.71-1.53-1.42-3.07-2-4.65s-1.28-3.16-1.8-4.72a71.87,71.87,0,0,1-2.88-9.7l0-.07a1,1,0,0,0-1.29-.75A1.11,1.11,0,0,0,1696.59,49.67Z"/><path class="cls-7" d="M1598.1,89s-9.1-3.58-13.59,6.87,6.33,22.73,21.83,18.08c0,0-4.18,18.94,12.46,21.22s21.29-21.43,21.29-21.43,24.15,4.09,27.92-12.19-19.74-13.83-19.74-13.83,9.93-11.87,1.61-19.13C1639.2,59.3,1625,74.13,1625,74.13S1618.3,58.82,1605,63C1589.62,68.14,1598.1,89,1598.1,89Z"/><path class="cls-3" d="M1638.65,98.27c0-5.21-5.71-9.48-12.86-9.55s-13,4.11-13,9.32,5.71,9.48,12.86,9.54S1638.6,103.47,1638.65,98.27Z"/><path class="cls-4" d="M1619.45,79.69a13.8,13.8,0,0,0-.66-1.94,10.29,10.29,0,0,0-1.76-2.7,23.17,23.17,0,0,0-4.67-4,3.33,3.33,0,0,0-4.2.62,2.86,2.86,0,0,0-2.1.42,4.24,4.24,0,0,0-.69.56,2.77,2.77,0,0,0-1.4,0,3.6,3.6,0,0,0-2.52,3.24,20,20,0,0,0,.91,7.07,13.62,13.62,0,0,0,1.54,3.41,13,13,0,0,0,2.55,2.91,2.6,2.6,0,0,0,3.35.25,2.46,2.46,0,0,0,1-1.81,3.05,3.05,0,0,0,2.34-.35,4.72,4.72,0,0,0,1.07-1h.39a3.46,3.46,0,0,0,2.54-1.76,3.15,3.15,0,0,0,2.3-2.22A7.59,7.59,0,0,0,1619.45,79.69Z"/><path class="cls-4" d="M1645.45,78.05a3.24,3.24,0,0,0-1.53-2.7,2.87,2.87,0,0,0-2.65-.18,3.07,3.07,0,0,0-1-1.93,2.6,2.6,0,0,0-2.74-.73,18.33,18.33,0,0,0-5.71,3.37,14,14,0,0,0-2.06,2.22,6.57,6.57,0,0,0-.84,1.34,4.52,4.52,0,0,0-.44,1.1,3.2,3.2,0,0,0,0,1.48,2.2,2.2,0,0,0,2.6,1.51c.08,0,.16-.08.23-.08a2.26,2.26,0,0,0,.65,1,4.05,4.05,0,0,0,3.45,1.27,2.55,2.55,0,0,0,.33,1.31,3.13,3.13,0,0,0,3.38,1.42,6.25,6.25,0,0,0,3.08-1.84,11.73,11.73,0,0,0,1.91-2.45A11.06,11.06,0,0,0,1645.45,78.05Z"/><path class="cls-4" d="M1603.75,95.63a.93.93,0,0,0,.15-.47,2.1,2.1,0,0,0-1-2.08,4,4,0,0,0-1.88-.75,20.77,20.77,0,0,0-2.19-.27,11.55,11.55,0,0,0-2.34.19,5.77,5.77,0,0,0-1.93.58,4.65,4.65,0,0,0-1,.72,3.77,3.77,0,0,0-.79,4.15,3.51,3.51,0,0,0,1,1.38,8,8,0,0,0,2.52,1.44,4.79,4.79,0,0,0,1.41.44,20.12,20.12,0,0,0,2.42.35,13.47,13.47,0,0,0,2.5-.2l.77-.33a2.29,2.29,0,0,0,.92-.79,3,3,0,0,0,.74-2A4,4,0,0,0,1603.75,95.63Z"/><path class="cls-4" d="M1627.12,116.42a5.79,5.79,0,0,0-.73-1.55,2.06,2.06,0,0,0-1.66-1.06,2.32,2.32,0,0,0-1.86.58,3.83,3.83,0,0,0-.53.55,9,9,0,0,0-.72-.84,3,3,0,0,0-3.13-.65c-.08,0-.15.08-.23.09a1.48,1.48,0,0,0-.48-.54,2.13,2.13,0,0,0-2.8.13,9.7,9.7,0,0,0-1.28,11.09,2.69,2.69,0,0,0,4.21.55c.08,0,.08-.08.08-.16v.08a3.65,3.65,0,0,0,4.25,2.1,4.49,4.49,0,0,0,2.83-2.62,21.7,21.7,0,0,0,1.28-3.06,13,13,0,0,0,.65-2.43A4.15,4.15,0,0,0,1627.12,116.42Z"/><path class="cls-4" d="M1658.93,99.33a4.68,4.68,0,0,0,.77-.56,2.93,2.93,0,0,0,1.43-2.44,2.87,2.87,0,0,0-1.37-2.47,14.51,14.51,0,0,0-6-1.69,20.49,20.49,0,0,0-3,.13,12.39,12.39,0,0,0-3,.91,2.36,2.36,0,0,0-1,2.9,2,2,0,0,0,1.58,1.3,3.14,3.14,0,0,0-1.67,2.76,3.42,3.42,0,0,0,.66,1.93,3.47,3.47,0,0,0-2.12,3.16,3.52,3.52,0,0,0,.5,1.78,3.8,3.8,0,0,0,2,1.6,7.18,7.18,0,0,0,3.2.18,15.36,15.36,0,0,0,3.18-.6c1-.33,1.94-.74,2.87-1.14a7.45,7.45,0,0,0,2.38-1.68,4.1,4.1,0,0,0,.06-5.62C1659.32,99.63,1659.09,99.48,1658.93,99.33Z"/><path class="cls-7" d="M1283.35,63.05s-6.54-2.57-9.76,4.94,4.54,16.32,15.68,13c0,0-3,13.61,9,15.24s15.29-15.39,15.29-15.39,17.35,2.94,20-8.75-14.17-9.94-14.17-9.94,7.12-8.52,1.15-13.74c-7.67-6.63-17.9,4-17.9,4s-4.78-11-14.3-8C1277.26,48.1,1283.35,63.05,1283.35,63.05Z"/><path class="cls-3" d="M1312.47,69.74c0-3.74-4.1-6.81-9.23-6.85s-9.32,3-9.35,6.69,4.1,6.81,9.23,6.85S1312.44,73.48,1312.47,69.74Z"/><path class="cls-4" d="M1298.68,56.4a9.45,9.45,0,0,0-.47-1.39,7.19,7.19,0,0,0-1.26-1.94,17,17,0,0,0-3.36-2.91,2.41,2.41,0,0,0-3,.45,2.1,2.1,0,0,0-1.5.3,3,3,0,0,0-.5.41,2.16,2.16,0,0,0-1,0,2.59,2.59,0,0,0-1.8,2.33,14.36,14.36,0,0,0,.65,5.08,9.36,9.36,0,0,0,1.11,2.45,9.08,9.08,0,0,0,1.83,2.09,1.85,1.85,0,0,0,2.41.18,1.79,1.79,0,0,0,.7-1.3,2.2,2.2,0,0,0,1.68-.25,3.35,3.35,0,0,0,.77-.74h.28A2.48,2.48,0,0,0,1297,59.9a2.27,2.27,0,0,0,1.65-1.6A5.26,5.26,0,0,0,1298.68,56.4Z"/><path class="cls-4" d="M1317.36,55.23a2.32,2.32,0,0,0-1.1-1.94,2.05,2.05,0,0,0-1.9-.14,2.24,2.24,0,0,0-.7-1.39,1.89,1.89,0,0,0-2-.52,13.49,13.49,0,0,0-4.1,2.42,10.22,10.22,0,0,0-1.48,1.6,4.59,4.59,0,0,0-.6,1,3.27,3.27,0,0,0-.32.79,2.22,2.22,0,0,0,0,1.06,1.58,1.58,0,0,0,1.86,1.09c.06,0,.12-.06.17-.06a1.66,1.66,0,0,0,.46.72,2.92,2.92,0,0,0,2.48.91,1.94,1.94,0,0,0,.24,1,2.28,2.28,0,0,0,2.43,1,4.52,4.52,0,0,0,2.21-1.33,8.51,8.51,0,0,0,1.37-1.76A7.93,7.93,0,0,0,1317.36,55.23Z"/><path class="cls-4" d="M1287.41,67.85a.72.72,0,0,0,.11-.34,1.53,1.53,0,0,0-.7-1.5,3,3,0,0,0-1.35-.53c-.51-.1-1.07-.15-1.58-.2a9.41,9.41,0,0,0-1.67.14,4.09,4.09,0,0,0-1.39.42,3.49,3.49,0,0,0-.72.52,2.63,2.63,0,0,0-.76,1.52,2.58,2.58,0,0,0,.19,1.46,2.54,2.54,0,0,0,.69,1,6.05,6.05,0,0,0,1.81,1,3.65,3.65,0,0,0,1,.32c.56.1,1.12.2,1.74.25a10.39,10.39,0,0,0,1.79-.14l.55-.24a1.6,1.6,0,0,0,.66-.57,2.22,2.22,0,0,0,.54-1.41A3,3,0,0,0,1287.41,67.85Z"/><path class="cls-4" d="M1304.19,82.78a4,4,0,0,0-.52-1.11,1.47,1.47,0,0,0-1.19-.76,1.69,1.69,0,0,0-1.34.41,3.45,3.45,0,0,0-.38.4,4.49,4.49,0,0,0-.52-.6,2.09,2.09,0,0,0-2.24-.47c-.06,0-.11.06-.17.06a1.17,1.17,0,0,0-.34-.39,1.55,1.55,0,0,0-2,.1,7,7,0,0,0-.92,8,1.94,1.94,0,0,0,3,.4c.06,0,.06-.06.06-.12v.06a2.61,2.61,0,0,0,3,1.51,3.21,3.21,0,0,0,2-1.88,15.72,15.72,0,0,0,.92-2.2,9.1,9.1,0,0,0,.47-1.74A3.09,3.09,0,0,0,1304.19,82.78Z"/><path class="cls-4" d="M1327,70.5a2.84,2.84,0,0,0,.55-.4,2.08,2.08,0,0,0,1-1.75,2.1,2.1,0,0,0-1-1.78,10.54,10.54,0,0,0-4.33-1.21,14.41,14.41,0,0,0-2.18.1,8.88,8.88,0,0,0-2.12.65,1.7,1.7,0,0,0-.69,2.09,1.49,1.49,0,0,0,1.14.93,2.26,2.26,0,0,0-1.2,2,2.52,2.52,0,0,0,.47,1.39,2.49,2.49,0,0,0-1.52,2.27,2.46,2.46,0,0,0,.36,1.28A2.76,2.76,0,0,0,1319,77.2a5.38,5.38,0,0,0,2.3.12,10.86,10.86,0,0,0,2.29-.43c.72-.24,1.39-.53,2-.82a5.21,5.21,0,0,0,1.72-1.21,3,3,0,0,0,0-4C1327.32,70.72,1327.15,70.61,1327,70.5Z"/><path class="cls-2" d="M1448.63,88.14s-10.9,9.93-3.68,16.61c8.84,8.24,20.11-3.54,20.11-3.54a14.08,14.08,0,0,0,17.3,3.72c10.79-5,4.35-18.26,4.35-18.26s11.61-6.12,8.77-18.09c-2.31-9.8-13.34-12.68-20.16-4.91,0,0-1.56-17.85-14.72-17.27s-8.94,16.35-7.16,21.49c0,0-15.88-4.29-18.29,7.83S1445.56,88.89,1448.63,88.14Z"/><path class="cls-3" d="M1470.78,85c5.31-3.41,7.62-9.28,5.16-13.11s-8.75-4.18-14.06-.78-7.63,9.28-5.17,13.11S1465.47,88.44,1470.78,85Z"/><path class="cls-4" d="M1450.26,79.22a2.2,2.2,0,0,0-1.08-2.26L1446,75.37c.25-.05.49-.15.74-.21a.38.38,0,0,0,.2,0c-.4.1.39-.06.54-.06h1.3a1.6,1.6,0,0,0,1.42-.92,1.53,1.53,0,0,0-.28-1.69,4.69,4.69,0,0,0-2.35-1.1,7.18,7.18,0,0,0-2.73.15c-1.59.33-3.51.91-4.43,2.31a2.92,2.92,0,0,0,.26,3.58,4.56,4.56,0,0,0,1.11.82,5.43,5.43,0,0,0-.84.66,3.59,3.59,0,0,0-.88,3.4c.63,2.07,2.78,2.68,4.77,2.64a6.09,6.09,0,0,0,2.82-.59,3.37,3.37,0,0,0,1.56-1.32,1.54,1.54,0,0,0,.24-.7c0,.1,0,.1,0,0a1.47,1.47,0,0,0-.22-1.34A2.52,2.52,0,0,0,1450.26,79.22Z"/><path class="cls-4" d="M1456.54,94.16A1.94,1.94,0,0,0,1456,93a2.13,2.13,0,0,0-2.59-.35c-.34.25-.69.46-1,.71.39-.55.78-1.1,1.11-1.66a1.61,1.61,0,0,0-.38-2.08,1.6,1.6,0,0,0-2.09.09,15.93,15.93,0,0,0-3.22,3.29,7.29,7.29,0,0,0-1.55,4.55,2.67,2.67,0,0,0,2.07,2.34,2.91,2.91,0,0,0,1.44,0c-.18.55-.32,1.1-.46,1.65-.28,1.29.6,3,2.08,2.79a5.09,5.09,0,0,0,2.23-.74,2.1,2.1,0,0,0,3.68.29,24.91,24.91,0,0,0,1.81-4.06,12,12,0,0,0,.87-4.34A2,2,0,0,0,1456.54,94.16Z"/><path class="cls-4" d="M1480.54,94.78a16.15,16.15,0,0,0-1.79-3.15,2.06,2.06,0,0,0-2.8-.75,2.41,2.41,0,0,0-1.06,1.81,2,2,0,0,0-2.09,2.42,16.86,16.86,0,0,1,.33,1.69c-.21-.35-.46-.74-.67-1.08s-.2-.4-.31-.59-.1-.2-.1-.25a1.49,1.49,0,0,1-.11-.4c-.15-.54-.26-1-.42-1.58a1.47,1.47,0,0,0-2.83,0,6.18,6.18,0,0,0-.13,1.35c.06.39.12.84.17,1.23a9.65,9.65,0,0,0,.74,2.28,9.88,9.88,0,0,0,2.64,3.53c.86.73,1.87,1.55,3.06,1.28,1.38-.32,1.76-1.57,1.88-2.86a2.67,2.67,0,0,0,3.82-.77C1481.79,97.59,1481.11,96.11,1480.54,94.78Z"/><path class="cls-4" d="M1469.06,58a17.12,17.12,0,0,0-2.41-3.88,2,2,0,0,0-2.09-.51,2.15,2.15,0,0,0-3.67.71,7.14,7.14,0,0,0-.21,2l-1-1.12a2.1,2.1,0,0,0-2.2-.46,2.07,2.07,0,0,0-1.26,1.81,20.26,20.26,0,0,0,.29,5.11,14.55,14.55,0,0,0,.69,2.47,5.38,5.38,0,0,0,1.34,2.27,1.4,1.4,0,0,0,2.36-1,4.07,4.07,0,0,0-.12-1.34c0-.2-.06-.4-.11-.54s-.11-.6-.05-.3c0-.15-.06-.3-.06-.45a12.38,12.38,0,0,1,.72,1.23,2,2,0,0,0,3.52,0,6.27,6.27,0,0,0,.38-1,2.1,2.1,0,0,0,1.45.32,1.56,1.56,0,0,0,.31.39,1.82,1.82,0,0,0,1.84.52,1.86,1.86,0,0,0,1.32-1.32C1470.66,61.42,1469.73,59.45,1469.06,58Z"/><path class="cls-4" d="M1486.65,66.55a1.76,1.76,0,0,0-.81-.63c-.15,0-.25-.1-.4-.14a5.69,5.69,0,0,0,.28-1,2.12,2.12,0,0,0,0-1,2.51,2.51,0,0,0-.46-.83,1.93,1.93,0,0,0-1.84-.52,11.92,11.92,0,0,0-1.78.58,6.69,6.69,0,0,0-1.28.72,7,7,0,0,0-2.29,2.67,1.22,1.22,0,0,0,.28,1.59A1.2,1.2,0,0,0,1480,68l0,0c-.24.45-.52,1-.76,1.41a2.22,2.22,0,0,0,.29,2.57,2,2,0,0,0,.9.53,2.4,2.4,0,0,0,1.64-.17c.69-.46,1.37-.92,2.11-1.38.35-.21.69-.46,1-.67a5.24,5.24,0,0,0,1.62-1.37A2.11,2.11,0,0,0,1486.65,66.55Z"/><path class="cls-8" d="M835.81,163.55c2.89,7,14.86,12.89,23.3,8.1a16.39,16.39,0,0,1-6-2.43c-15.85-10.68-8.82-20.09-8.82-20.09a51.16,51.16,0,0,1-7.95.35C836.08,150.1,833.18,156.8,835.81,163.55Z"/><path class="cls-9" d="M830,167.79s1.81,10.81,12.47,14.87c10.31,4,17.84.12,18.36-.21a17.26,17.26,0,0,1,5.3-10.15l-.16-.79a20,20,0,0,1-6.73.08c-8.51,4.71-20.49-1-23.31-8.11-2.7-6.68.27-13.44.52-14.06-5.23-.19-12-1.17-16.56-4.86a16.61,16.61,0,0,0,.56,15C824.66,167.39,830,167.79,830,167.79Z"/><path class="cls-10" d="M832.19,183s3.92,23.62,30.14,12.21a26,26,0,0,1-1.63-12.71c-.51.32-8,4-18.36.21-10.72-4.14-12.47-14.87-12.47-14.87s-5.28-.4-9.55-8.25a16.6,16.6,0,0,1-.55-15,12.87,12.87,0,0,1-4.56-6.52c-1.73-5.28,1.56-10.31,7.5-14.62-36.09,22.13-13.42,34.66-13.42,34.66s-6.44,12.49-.08,19.69C820.07,190,832.19,183,832.19,183Z"/><path class="cls-11" d="M860.77,182.59a25.37,25.37,0,0,0,1.62,12.72s7.64,1.39,22.19-11.74c19.66-17.62,13.84-46,12.08-53.09l-.07.07a30.86,30.86,0,0,1-5.12,25.33s-12.59,13.38-25.56,15.77l.17.79A17.23,17.23,0,0,0,860.77,182.59Z"/><path class="cls-12" d="M815.28,138.19a14.46,14.46,0,0,0,4.55,6.51c4.59,3.69,11.26,4.74,16.56,4.86a50.41,50.41,0,0,0,8-.36s-7,9.41,8.81,20.1a15.09,15.09,0,0,0,6,2.43,18.15,18.15,0,0,0,6.73-.08c13-2.24,25.56-15.77,25.56-15.77a30.86,30.86,0,0,0,5.12-25.33c-2.76-10.38-12.21-19.11-31.11-19.36-13.74-.14-32.11,4.88-42.56,12.24l-.15.13C816.85,127.73,813.48,132.83,815.28,138.19Z"/><path class="cls-4" d="M858.39,146.67a10.62,10.62,0,0,1-1.11-9.56,58.66,58.66,0,0,1-6.1.19c-3-.05-6.15-.17-8.59-2a7.13,7.13,0,0,1-2.39-8.3c2-5.47,9.59-7.27,14.63-8.52a31.37,31.37,0,0,1,16.35.24,2.43,2.43,0,0,1,1.16.71,5.25,5.25,0,0,1,2.5,1.92c1.37,1.86,1.56,4.63,2.06,6.72s1,4.24,1.45,6.33c1.14,4.46,2.14,8.91,3.28,13.38a4.24,4.24,0,0,1-3.56,4.88C870.86,153.54,862.64,153.59,858.39,146.67Z"/></svg>