<svg id="Capa_1" data-name="Capa 1" xmlns="http://www.w3.org/2000/svg" viewBox="0 0 1824.82 198.34"><defs><style>.cls-1{fill:none;stroke:#18371d;stroke-linecap:round;stroke-width:9px;}.cls-2{fill:#71c8e0;}.cls-3{fill:#f6ea5c;}.cls-4{fill:#fff;opacity:0.75;isolation:isolate;}.cls-5{fill:#7abd6d;}.cls-6{fill:#18371d;}.cls-7{fill:#f28f1c;}.cls-8{fill:#aa1737;}.cls-9{fill:#d9274a;}.cls-10{fill:#e94b5b;}.cls-11{fill:#ec6075;}.cls-12{fill:#ef798f;}</style></defs><path class="cls-1" d="M.66,78.72c299.59,40.34,908.8,93.42,948.84-16.91"/><path class="cls-2" d="M734.26,115.81s13.75-12.52,4.64-21c-11.16-10.39-25.37,4.47-25.37,4.47a17.76,17.76,0,0,0-21.83-4.69c-13.61,6.26-5.48,23-5.48,23s-14.65,7.72-11.06,22.82c2.92,12.36,16.83,16,25.43,6.19,0,0,2,22.53,18.56,21.79s11.29-20.63,9-27.1c0,0,20,5.4,23.08-9.88S738.12,114.87,734.26,115.81Z"/><path class="cls-3" d="M706.32,119.73c-6.7,4.3-9.62,11.7-6.52,16.54s11.05,5.27,17.75,1,9.61-11.69,6.51-16.53S713,115.44,706.32,119.73Z"/><path class="cls-4" d="M732.2,127.07a2.8,2.8,0,0,0,1.37,2.86l4,2c-.31.07-.62.2-.93.27a.43.43,0,0,0-.25.07c.5-.14-.5.07-.69.07h-.5l-1.13,0a2,2,0,0,0-1.79,1.16,1.9,1.9,0,0,0,.35,2.13,5.9,5.9,0,0,0,3,1.38,9.07,9.07,0,0,0,3.44-.18c2-.41,4.43-1.15,5.59-2.92a3.69,3.69,0,0,0-.33-4.51,6.07,6.07,0,0,0-1.4-1,7.1,7.1,0,0,0,1-.83,4.51,4.51,0,0,0,1.12-4.28c-.8-2.62-3.51-3.39-6-3.34a7.78,7.78,0,0,0-3.56.75,6.68,6.68,0,0,0-1.36.9,6.55,6.55,0,0,0-.61.76,2.09,2.09,0,0,0-.3.89c0-.13,0-.13-.06.06a1.84,1.84,0,0,0,.28,1.69A3.16,3.16,0,0,0,732.2,127.07Z"/><path class="cls-4" d="M724.28,108.22a2.36,2.36,0,0,0,.72,1.49,2.68,2.68,0,0,0,3.26.45c.44-.33.87-.58,1.3-.9-.48.69-1,1.39-1.4,2.09a2,2,0,0,0,.49,2.62,2,2,0,0,0,2.63-.11,19.9,19.9,0,0,0,4.06-4.14c1.1-1.59,2.19-3.8,2-5.74a3.39,3.39,0,0,0-2.62-3,3.5,3.5,0,0,0-1.82,0c.24-.69.42-1.39.59-2.08.35-1.63-.75-3.75-2.63-3.52a6.53,6.53,0,0,0-2.8.92c-.85-1.74-3.55-2.32-4.65-.35a31.55,31.55,0,0,0-2.29,5.11,15.5,15.5,0,0,0-1.09,5.48A2.47,2.47,0,0,0,724.28,108.22Z"/><path class="cls-4" d="M694,107.44a21,21,0,0,0,2.26,4,2.6,2.6,0,0,0,3.53.94,3.06,3.06,0,0,0,1.34-2.28,2.5,2.5,0,0,0,2.64-3.06c-.14-.69-.34-1.37-.42-2.12l.84,1.36.39.75c0,.06.13.24.13.31a1.5,1.5,0,0,1,.14.5c.2.68.33,1.31.53,2a1.86,1.86,0,0,0,3.58,0,8.11,8.11,0,0,0,.15-1.69c-.07-.5-.14-1.07-.21-1.57a12.11,12.11,0,0,0-.93-2.86,12.33,12.33,0,0,0-3.34-4.46c-1.08-.92-2.35-2-3.85-1.62-1.75.41-2.22,2-2.38,3.61a3.09,3.09,0,0,0-1.2-.54,3.25,3.25,0,0,0-3.61,1.51C692.43,103.9,693.28,105.77,694,107.44Z"/><path class="cls-4" d="M708.49,153.88a21.68,21.68,0,0,0,3,4.89,2.51,2.51,0,0,0,2.64.64,2.71,2.71,0,0,0,4.63-.89,8.62,8.62,0,0,0,.26-2.51l1.28,1.41a2.65,2.65,0,0,0,2.77.58,2.59,2.59,0,0,0,1.59-2.28,24.36,24.36,0,0,0-.37-6.45,16.79,16.79,0,0,0-.87-3.12,6.59,6.59,0,0,0-1.68-2.85,1.76,1.76,0,0,0-3,1.24,5.36,5.36,0,0,0,.15,1.69c.07.25.07.5.14.69s.14.75.07.37c0,.19.07.38.07.57a13.92,13.92,0,0,1-.9-1.55c-.91-1.62-3.61-1.82-4.45-.05a10,10,0,0,0-.48,1.2,2.66,2.66,0,0,0-1.83-.41,2.71,2.71,0,0,0-.38-.49,2.36,2.36,0,0,0-4,1C706.47,149.52,707.64,152,708.49,153.88Z"/><path class="cls-4" d="M686.3,143.05a2.15,2.15,0,0,0,1,.8l.5.18a7.76,7.76,0,0,0-.35,1.2,2.65,2.65,0,0,0,0,1.25,3.28,3.28,0,0,0,.58,1.05,2.44,2.44,0,0,0,2.33.65,14.63,14.63,0,0,0,2.24-.73,8.19,8.19,0,0,0,1.61-.9,8.91,8.91,0,0,0,2.89-3.38,1.52,1.52,0,0,0-2.35-1.9l-.06.07c.3-.57.66-1.21,1-1.78a2.85,2.85,0,0,0-.37-3.25,2.64,2.64,0,0,0-1.14-.67,3.05,3.05,0,0,0-2.07.23c-.87.58-1.73,1.16-2.66,1.74-.44.26-.87.58-1.24.83a7,7,0,0,0-2,1.73A2.67,2.67,0,0,0,686.3,143.05Z"/><path class="cls-5" d="M289.45,92.29c-7.52-7.25-8.94-48,21.14-51.28,24.85-2.77,30.05,24.54,23.3,37.57C325.56,94.67,299.22,101.72,289.45,92.29Z"/><path class="cls-6" d="M316.94,58.23A69.46,69.46,0,0,1,308.09,77a68.62,68.62,0,0,1-14,15.55,87.77,87.77,0,0,1-8.56,6c-3.18,1.51-6.23,3.36-9.58,4.36a41.69,41.69,0,0,1-5,1.6l-5.1,1.13a30.56,30.56,0,0,1-5.17.62c-1.74.15-3.48.3-5.17.38a1,1,0,0,1-1.12-1,1.11,1.11,0,0,1,.85-1.12h.12c6.61-1.28,13.16-2.5,19.16-5.29a87.46,87.46,0,0,0,8.83-4.4,76.46,76.46,0,0,0,8-5.79A83.16,83.16,0,0,0,305,74.79c1-1.35,1.93-2.71,2.84-4.12s1.81-2.83,2.6-4.24A70.69,70.69,0,0,0,315,57.57l.06-.06A1,1,0,0,1,316.4,57,1.09,1.09,0,0,1,316.94,58.23Z"/><path class="cls-5" d="M287.56,127.22c-8.73,5.73-17.67,45.47,11.27,54.31,23.9,7.33,34.07-18.55,29.86-32.61C323.49,131.57,298.9,119.77,287.56,127.22Z"/><path class="cls-6" d="M308.27,165.78A69.5,69.5,0,0,0,303,145.69a68.54,68.54,0,0,0-10.85-17.87,83.72,83.72,0,0,0-7.3-7.51c-2.84-2.07-5.49-4.46-8.61-6.06a42,42,0,0,0-4.59-2.5l-4.8-2.06a31.07,31.07,0,0,0-5-1.56c-1.69-.47-3.37-.94-5-1.34a1.06,1.06,0,0,0-1.29.75,1.12,1.12,0,0,0,.63,1.26l.12,0c6.26,2.49,12.47,4.9,17.85,8.75a87.19,87.19,0,0,1,7.85,6,76.62,76.62,0,0,1,6.78,7.17,83.86,83.86,0,0,1,10.7,16.59c.7,1.51,1.39,3,2,4.58s1.26,3.11,1.77,4.64a71.25,71.25,0,0,1,2.84,9.56l0,.06a1,1,0,0,0,1.28.74A1.1,1.1,0,0,0,308.27,165.78Z"/><path class="cls-5" d="M440.53,104.39c-7.66-7.4-9.11-48.89,21.55-52.29,25.34-2.82,30.64,25,23.76,38.31C477.35,106.81,450.49,114,440.53,104.39Z"/><path class="cls-6" d="M468.56,69.66a70.52,70.52,0,0,1-9,19.14,69.73,69.73,0,0,1-14.25,15.86,85.35,85.35,0,0,1-8.72,6.14c-3.24,1.54-6.35,3.44-9.77,4.45a43.21,43.21,0,0,1-5.07,1.63l-5.2,1.16a30.72,30.72,0,0,1-5.27.63c-1.78.15-3.55.3-5.27.39a1.08,1.08,0,0,1-1.15-1,1.14,1.14,0,0,1,.87-1.14h.12c6.74-1.31,13.42-2.56,19.54-5.39a93,93,0,0,0,9-4.49,78.41,78.41,0,0,0,8.14-5.9,85.3,85.3,0,0,0,13.86-14.6c1-1.38,2-2.77,2.89-4.21s1.85-2.88,2.65-4.31a72.2,72.2,0,0,0,4.64-9l.06-.06a1,1,0,0,1,1.42-.5A1.11,1.11,0,0,1,468.56,69.66Z"/><path class="cls-5" d="M438.64,141.67c-8.91,5.85-18,46.35,11.48,55.37,24.38,7.47,34.74-18.91,30.44-33.24C475.27,146.1,450.2,134.07,438.64,141.67Z"/><path class="cls-6" d="M459.75,181a70.82,70.82,0,0,0-5.33-20.48,69.71,69.71,0,0,0-11.07-18.22,86.8,86.8,0,0,0-7.43-7.65c-2.9-2.12-5.6-4.55-8.78-6.18a42,42,0,0,0-4.68-2.55l-4.89-2.1a32.33,32.33,0,0,0-5.06-1.59c-1.72-.48-3.44-1-5.11-1.36a1.07,1.07,0,0,0-1.31.76,1.12,1.12,0,0,0,.64,1.28l.12,0c6.38,2.54,12.71,5,18.2,8.92a90.76,90.76,0,0,1,8,6.08,79.39,79.39,0,0,1,6.9,7.3,85.08,85.08,0,0,1,10.91,16.92c.71,1.54,1.42,3.08,2.06,4.66s1.28,3.18,1.81,4.74a73.94,73.94,0,0,1,2.89,9.74l0,.07a1,1,0,0,0,1.3.75A1.12,1.12,0,0,0,459.75,181Z"/><path class="cls-5" d="M628.88,152.49c-6.66,4.61-12.86,35.58,9.74,41.9,18.68,5.24,26.08-15,22.55-25.84C656.82,155.19,637.54,146.5,628.88,152.49Z"/><path class="cls-6" d="M647.13,185a71,71,0,0,0-5.81-20.35,70,70,0,0,0-11.5-17.94,85.23,85.23,0,0,0-7.62-7.48c-2.94-2-5.71-4.42-8.92-6a42.46,42.46,0,0,0-4.74-2.43l-4.94-2a31.44,31.44,0,0,0-5.1-1.48c-1.73-.43-3.46-.87-5.14-1.23a1.06,1.06,0,0,0-1.29.79,1.13,1.13,0,0,0,.67,1.26l.12,0c6.44,2.37,12.83,4.68,18.41,8.47a92.46,92.46,0,0,1,8.15,5.89,79.53,79.53,0,0,1,7.08,7.14,85.08,85.08,0,0,1,11.31,16.65c.75,1.52,1.49,3,2.17,4.61s1.36,3.14,1.92,4.69a72.45,72.45,0,0,1,3.12,9.67l.05.07a1,1,0,0,0,1.31.72A1.12,1.12,0,0,0,647.13,185Z"/><path class="cls-5" d="M623.36,104.77c-8.86-5.91-17.67-46.49,11.9-55.28,24.43-7.29,34.6,19.16,30.19,33.47C660,100.61,634.87,112.45,623.36,104.77Z"/><path class="cls-6" d="M644.76,65.61a70.71,70.71,0,0,1-5.48,20.45,69.62,69.62,0,0,1-11.2,18.13,86.77,86.77,0,0,1-7.49,7.6c-2.91,2.09-5.64,4.51-8.82,6.11a41.09,41.09,0,0,1-4.7,2.51l-4.91,2.07a31.29,31.29,0,0,1-5.07,1.55c-1.73.47-3.45.93-5.12,1.33a1.07,1.07,0,0,1-1.3-.77,1.12,1.12,0,0,1,.65-1.28l.11,0c6.4-2.49,12.75-4.9,18.27-8.78a92.58,92.58,0,0,0,8-6,78.24,78.24,0,0,0,7-7.26,84.87,84.87,0,0,0,11-16.83c.72-1.53,1.44-3.07,2.09-4.65s1.31-3.16,1.84-4.72a72.66,72.66,0,0,0,3-9.72l0-.07a1,1,0,0,1,1.3-.74A1.09,1.09,0,0,1,644.76,65.61Z"/><path class="cls-5" d="M809.52,110.56c-6.71-7.84-4.27-48,25.6-48.4,24.69-.38,27.22,26.94,19.36,39.12C844.78,116.3,818.23,120.74,809.52,110.56Z"/><path class="cls-6" d="M839.69,79.24a68.58,68.58,0,0,1-10.48,17.62,67.6,67.6,0,0,1-15.2,14,83.78,83.78,0,0,1-9,5.12c-3.26,1.18-6.43,2.72-9.83,3.38a39.89,39.89,0,0,1-5,1.1l-5.12.64a30.23,30.23,0,0,1-5.13.12c-1.73,0-3.45,0-5.12-.11a1,1,0,0,1-1-1.06,1.08,1.08,0,0,1,.94-1h.12c6.61-.64,13.17-1.22,19.33-3.39a85.78,85.78,0,0,0,9.08-3.5,74.28,74.28,0,0,0,8.39-4.93,82.32,82.32,0,0,0,14.71-12.79c1.08-1.24,2.15-2.48,3.18-3.79s2-2.6,3-3.91a70.34,70.34,0,0,0,5.31-8.29l.06-.05a1,1,0,0,1,1.41-.35A1.08,1.08,0,0,1,839.69,79.24Z"/><path class="cls-5" d="M811.13,134.92c-6.85,7.71-5.16,47.88,24.7,48.87,24.67.84,27.71-26.44,20.08-38.76C846.49,129.83,820,124.9,811.13,134.92Z"/><path class="cls-6" d="M840.78,166.35a68.44,68.44,0,0,0-10.15-17.8,67.43,67.43,0,0,0-14.94-14.25,83,83,0,0,0-8.88-5.28c-3.24-1.25-6.38-2.84-9.76-3.56a40.58,40.58,0,0,0-5-1.2l-5.11-.73a29.17,29.17,0,0,0-5.13-.22c-1.73,0-3.45,0-5.12,0a1,1,0,0,0-1,1,1.08,1.08,0,0,0,.93,1h.11c6.6.76,13.15,1.46,19.26,3.75a85.16,85.16,0,0,1,9,3.66,75.92,75.92,0,0,1,8.3,5.09A82.45,82.45,0,0,1,827.73,151c1,1.26,2.1,2.52,3.1,3.84s2,2.65,2.88,4a68.72,68.72,0,0,1,5.16,8.38l.06.05a1,1,0,0,0,1.4.38A1.1,1.1,0,0,0,840.78,166.35Z"/><path class="cls-5" d="M109.75,72.35c-7.64-7.37-9.08-48.71,21.47-52.09,25.24-2.81,30.52,24.93,23.67,38.17C146.43,74.77,119.67,81.93,109.75,72.35Z"/><path class="cls-6" d="M137.67,37.76a70.43,70.43,0,0,1-9,19.07,69.64,69.64,0,0,1-14.2,15.79,86.59,86.59,0,0,1-8.7,6.13c-3.22,1.53-6.32,3.42-9.73,4.42a40.59,40.59,0,0,1-5,1.63L85.82,86a31.5,31.5,0,0,1-5.25.62c-1.77.15-3.54.3-5.25.39a1.06,1.06,0,0,1-1.14-1,1.12,1.12,0,0,1,.87-1.14h.11c6.72-1.31,13.37-2.55,19.47-5.37a91.28,91.28,0,0,0,9-4.48,78.83,78.83,0,0,0,8.11-5.87,85.09,85.09,0,0,0,13.81-14.55c1-1.38,2-2.76,2.88-4.19s1.84-2.87,2.64-4.3a71.68,71.68,0,0,0,4.62-9l.06-.06a1,1,0,0,1,1.41-.5A1.12,1.12,0,0,1,137.67,37.76Z"/><path class="cls-5" d="M107.86,109.5c-8.87,5.82-18,46.18,11.44,55.17,24.29,7.44,34.62-18.84,30.33-33.13C144.35,113.92,119.38,101.93,107.86,109.5Z"/><path class="cls-6" d="M128.89,148.67a70.65,70.65,0,0,0-5.31-20.41,69.42,69.42,0,0,0-11-18.15,85,85,0,0,0-7.41-7.63c-2.89-2.1-5.58-4.53-8.74-6.15a41.73,41.73,0,0,0-4.67-2.54L86.87,91.7a29.94,29.94,0,0,0-5.05-1.59c-1.71-.48-3.42-1-5.09-1.36a1.06,1.06,0,0,0-1.3.76,1.14,1.14,0,0,0,.64,1.28l.12,0c6.35,2.53,12.66,5,18.13,8.89a90.47,90.47,0,0,1,8,6,78.94,78.94,0,0,1,6.88,7.28,84.85,84.85,0,0,1,10.87,16.85c.71,1.54,1.41,3.07,2,4.65s1.28,3.16,1.8,4.72a72,72,0,0,1,2.88,9.71l0,.07a1,1,0,0,0,1.29.75A1.12,1.12,0,0,0,128.89,148.67Z"/><path class="cls-7" d="M227.38,109.39s9.1,3.58,13.59-6.87-6.33-22.72-21.83-18.08c0,0,4.18-18.94-12.46-21.21s-21.29,21.42-21.29,21.42-24.16-4.09-27.92,12.19,19.73,13.84,19.73,13.84-9.92,11.86-1.6,19.12c10.68,9.24,24.92-5.59,24.92-5.59s6.66,15.32,19.91,11.1C235.85,130.21,227.38,109.39,227.38,109.39Z"/><path class="cls-3" d="M186.83,100.08c0,5.2,5.71,9.48,12.85,9.54s13-4.1,13-9.31-5.7-9.48-12.85-9.55S186.88,94.87,186.83,100.08Z"/><path class="cls-4" d="M206,118.66a13.24,13.24,0,0,0,.66,1.93,9.89,9.89,0,0,0,1.76,2.7,23.53,23.53,0,0,0,4.67,4,3.34,3.34,0,0,0,4.2-.62,2.91,2.91,0,0,0,2.1-.43,4.24,4.24,0,0,0,.69-.56,2.88,2.88,0,0,0,1.4,0,3.58,3.58,0,0,0,2.51-3.24,19.8,19.8,0,0,0-.9-7.08,13.39,13.39,0,0,0-1.54-3.4,12.87,12.87,0,0,0-2.55-2.92,2.6,2.6,0,0,0-3.35-.25,2.52,2.52,0,0,0-1,1.81,3.08,3.08,0,0,0-2.33.35,4.38,4.38,0,0,0-1.07,1h-.39a3.48,3.48,0,0,0-2.54,1.76,3.15,3.15,0,0,0-2.3,2.23A7.59,7.59,0,0,0,206,118.66Z"/><path class="cls-4" d="M180,120.29a3.24,3.24,0,0,0,1.52,2.7,2.89,2.89,0,0,0,2.66.19,3,3,0,0,0,1,1.93,2.6,2.6,0,0,0,2.74.73,18.55,18.55,0,0,0,5.71-3.38,14,14,0,0,0,2.06-2.22,6.31,6.31,0,0,0,.84-1.34,4.44,4.44,0,0,0,.44-1.09,3.24,3.24,0,0,0,0-1.49,2.22,2.22,0,0,0-2.6-1.51c-.08,0-.16.08-.23.08a2.32,2.32,0,0,0-.65-1,4,4,0,0,0-3.45-1.26,2.59,2.59,0,0,0-.33-1.32,3.16,3.16,0,0,0-3.38-1.42,6.27,6.27,0,0,0-3.08,1.85,11.24,11.24,0,0,0-1.91,2.45A11,11,0,0,0,180,120.29Z"/><path class="cls-4" d="M221.72,102.71a1.1,1.1,0,0,0-.14.47,2.11,2.11,0,0,0,1,2.09,3.92,3.92,0,0,0,1.88.74,20.82,20.82,0,0,0,2.19.28,12.33,12.33,0,0,0,2.34-.2,5.55,5.55,0,0,0,1.93-.58,4.33,4.33,0,0,0,1-.72,3.76,3.76,0,0,0,.79-4.15,3.51,3.51,0,0,0-1-1.38,8.24,8.24,0,0,0-2.52-1.44,5.1,5.1,0,0,0-1.41-.44c-.79-.14-1.57-.28-2.43-.35a13.43,13.43,0,0,0-2.49.2l-.77.33a2.24,2.24,0,0,0-.92.8,3.07,3.07,0,0,0-.75,2A4.09,4.09,0,0,0,221.72,102.71Z"/><path class="cls-4" d="M198.36,81.93a5.73,5.73,0,0,0,.73,1.54,2,2,0,0,0,1.66,1.06,2.35,2.35,0,0,0,1.86-.57,3.41,3.41,0,0,0,.53-.56,7,7,0,0,0,.72.84,2.91,2.91,0,0,0,3.13.65c.07,0,.15-.08.23-.08a1.66,1.66,0,0,0,.48.54,2.13,2.13,0,0,0,2.8-.13,9.72,9.72,0,0,0,1.28-11.09,2.7,2.7,0,0,0-4.22-.55c-.07,0-.07.08-.07.16v-.08a3.64,3.64,0,0,0-4.25-2.11,4.53,4.53,0,0,0-2.84,2.62,23.6,23.6,0,0,0-1.27,3.07,12.67,12.67,0,0,0-.65,2.42A4.18,4.18,0,0,0,198.36,81.93Z"/><path class="cls-4" d="M166.55,99a4.68,4.68,0,0,0-.77.56,2.93,2.93,0,0,0-1.43,2.44,2.9,2.9,0,0,0,1.36,2.47,14.43,14.43,0,0,0,6,1.68,19.21,19.21,0,0,0,3-.13,11.54,11.54,0,0,0,2.95-.91,2.35,2.35,0,0,0,1-2.9,2.07,2.07,0,0,0-1.58-1.3,3.11,3.11,0,0,0,1.66-2.75,3.37,3.37,0,0,0-.65-1.94,3.47,3.47,0,0,0,2.12-3.16,3.62,3.62,0,0,0-.5-1.78,3.84,3.84,0,0,0-2.05-1.6,7.48,7.48,0,0,0-3.2-.18,15,15,0,0,0-3.19.61c-1,.33-1.93.73-2.86,1.14A7.29,7.29,0,0,0,166.05,93a4.1,4.1,0,0,0-.05,5.61C166.16,98.71,166.39,98.86,166.55,99Z"/><path class="cls-7" d="M542.13,135.29s6.54,2.57,9.76-4.93-4.54-16.32-15.68-13c0,0,3-13.6-9-15.24S512,117.52,512,117.52s-17.35-2.94-20.05,8.76,14.17,9.93,14.17,9.93S499,144.74,504.94,150c7.67,6.64,17.9-4,17.9-4s4.78,11,14.3,8C548.22,150.24,542.13,135.29,542.13,135.29Z"/><path class="cls-3" d="M513,128.6c0,3.74,4.1,6.81,9.23,6.86s9.32-3,9.35-6.69-4.1-6.81-9.23-6.86S513,124.86,513,128.6Z"/><path class="cls-4" d="M526.8,142a9.86,9.86,0,0,0,.47,1.39,7.14,7.14,0,0,0,1.26,1.93,16.71,16.71,0,0,0,3.36,2.91,2.39,2.39,0,0,0,3-.44,2.07,2.07,0,0,0,1.51-.31,3.5,3.5,0,0,0,.5-.4,2,2,0,0,0,1,0,2.58,2.58,0,0,0,1.81-2.33,14.36,14.36,0,0,0-.65-5.08,9.29,9.29,0,0,0-1.11-2.44,8.92,8.92,0,0,0-1.83-2.1,1.88,1.88,0,0,0-2.41-.18,1.81,1.81,0,0,0-.7,1.3,2.25,2.25,0,0,0-1.68.25,3.41,3.41,0,0,0-.77.75h-.28a2.49,2.49,0,0,0-1.82,1.27,2.25,2.25,0,0,0-1.65,1.59A5.32,5.32,0,0,0,526.8,142Z"/><path class="cls-4" d="M508.12,143.12a2.35,2.35,0,0,0,1.1,1.94,2,2,0,0,0,1.9.13,2.22,2.22,0,0,0,.7,1.39,1.87,1.87,0,0,0,2,.52,13.1,13.1,0,0,0,4.1-2.42,10.61,10.61,0,0,0,1.48-1.59,4.65,4.65,0,0,0,.6-1,3.11,3.11,0,0,0,.32-.79,2.22,2.22,0,0,0,0-1.06,1.59,1.59,0,0,0-1.87-1.09s-.11.06-.16.06a1.79,1.79,0,0,0-.46-.72,2.88,2.88,0,0,0-2.48-.9,1.92,1.92,0,0,0-.24-1,2.26,2.26,0,0,0-2.43-1,4.45,4.45,0,0,0-2.21,1.33,7.73,7.73,0,0,0-1.37,1.76A7.89,7.89,0,0,0,508.12,143.12Z"/><path class="cls-4" d="M538.07,130.49a.8.8,0,0,0-.11.34,1.53,1.53,0,0,0,.7,1.5,2.84,2.84,0,0,0,1.35.53,14.34,14.34,0,0,0,1.57.2,8.6,8.6,0,0,0,1.68-.14,4.15,4.15,0,0,0,1.39-.42,3.12,3.12,0,0,0,.72-.51,2.66,2.66,0,0,0,.76-1.53,2.85,2.85,0,0,0-.88-2.45,6.05,6.05,0,0,0-1.81-1,3.65,3.65,0,0,0-1-.32c-.56-.1-1.12-.2-1.74-.25a9.47,9.47,0,0,0-1.79.15l-.55.23a1.67,1.67,0,0,0-.66.57,2.22,2.22,0,0,0-.54,1.41A3,3,0,0,0,538.07,130.49Z"/><path class="cls-4" d="M521.29,115.56a4,4,0,0,0,.52,1.11,1.48,1.48,0,0,0,1.19.77,1.74,1.74,0,0,0,1.34-.42,2.36,2.36,0,0,0,.38-.4,5.35,5.35,0,0,0,.52.61,2.08,2.08,0,0,0,2.24.46c.06,0,.11-.06.17-.06a1.07,1.07,0,0,0,.34.39,1.54,1.54,0,0,0,2-.09,7,7,0,0,0,.92-8,1.94,1.94,0,0,0-3-.39c-.06,0-.06.05-.06.11v-.06a2.62,2.62,0,0,0-3.05-1.51,3.28,3.28,0,0,0-2,1.88,17,17,0,0,0-.91,2.2,9.2,9.2,0,0,0-.47,1.75A3,3,0,0,0,521.29,115.56Z"/><path class="cls-4" d="M498.44,127.84a2.84,2.84,0,0,0-.55.4,2,2,0,0,0-.05,3.53,10.39,10.39,0,0,0,4.33,1.21,14.41,14.41,0,0,0,2.18-.1,8.45,8.45,0,0,0,2.12-.65,1.69,1.69,0,0,0,.69-2.08,1.47,1.47,0,0,0-1.14-.93,2.28,2.28,0,0,0,1.2-2,2.53,2.53,0,0,0-.47-1.4,2.44,2.44,0,0,0,1.16-3.54,2.76,2.76,0,0,0-1.47-1.15,5.23,5.23,0,0,0-2.3-.13,10.86,10.86,0,0,0-2.29.43c-.72.24-1.39.53-2.05.82a5.36,5.36,0,0,0-1.72,1.21,3,3,0,0,0,0,4C498.16,127.62,498.33,127.73,498.44,127.84Z"/><path class="cls-2" d="M376.85,110.2s10.9-9.93,3.68-16.61c-8.84-8.24-20.11,3.54-20.11,3.54a14.07,14.07,0,0,0-17.3-3.71c-10.8,5-4.35,18.25-4.35,18.25s-11.61,6.12-8.77,18.1c2.31,9.79,13.34,12.67,20.16,4.9,0,0,1.56,17.86,14.71,17.28s8.95-16.36,7.17-21.49c0,0,15.88,4.28,18.29-7.83S379.91,109.45,376.85,110.2Z"/><path class="cls-3" d="M354.7,113.31c-5.31,3.4-7.62,9.27-5.17,13.1s8.76,4.18,14.07.78,7.63-9.27,5.17-13.11S360,109.9,354.7,113.31Z"/><path class="cls-4" d="M375.22,119.12a2.2,2.2,0,0,0,1.08,2.27c1.05.53,2.16,1,3.21,1.58-.25,0-.49.16-.74.21a.33.33,0,0,0-.2.06c.4-.11-.4.05-.54.06h-.4l-.9,0a1.6,1.6,0,0,0-1.42.92,1.5,1.5,0,0,0,.28,1.68,4.61,4.61,0,0,0,2.35,1.1,7,7,0,0,0,2.73-.15c1.59-.32,3.51-.9,4.43-2.31a2.9,2.9,0,0,0-.26-3.57,4.6,4.6,0,0,0-1.11-.83,4.46,4.46,0,0,0,.83-.66,3.56,3.56,0,0,0,.89-3.39c-.63-2.08-2.78-2.68-4.77-2.65a6.23,6.23,0,0,0-2.82.6,5,5,0,0,0-1.08.71,6.55,6.55,0,0,0-.49.61,1.66,1.66,0,0,0-.23.7c0-.1,0-.1-.05,0a1.47,1.47,0,0,0,.22,1.34A2.5,2.5,0,0,0,375.22,119.12Z"/><path class="cls-4" d="M368.94,104.18a1.86,1.86,0,0,0,.57,1.18,2.12,2.12,0,0,0,2.59.36c.34-.26.69-.46,1-.72-.39.55-.78,1.11-1.11,1.66a1.61,1.61,0,0,0,.38,2.08,1.59,1.59,0,0,0,2.09-.09,15.88,15.88,0,0,0,3.22-3.28,7.31,7.31,0,0,0,1.55-4.55,2.7,2.7,0,0,0-2.07-2.35,2.8,2.8,0,0,0-1.44,0c.18-.55.32-1.1.46-1.65.28-1.3-.6-3-2.08-2.8a5.22,5.22,0,0,0-2.23.74,2.09,2.09,0,0,0-3.68-.28,24.43,24.43,0,0,0-1.81,4,12,12,0,0,0-.87,4.34A2,2,0,0,0,368.94,104.18Z"/><path class="cls-4" d="M344.94,103.57a16.38,16.38,0,0,0,1.79,3.14,2.05,2.05,0,0,0,2.8.75,2.39,2.39,0,0,0,1.06-1.81,2,2,0,0,0,2.09-2.42,16.65,16.65,0,0,1-.33-1.68c.21.34.46.73.67,1.08l.31.59s.1.2.1.25a1.34,1.34,0,0,1,.11.39c.15.54.26,1,.42,1.58a1.47,1.47,0,0,0,2.83,0,6.09,6.09,0,0,0,.13-1.34c-.06-.4-.12-.84-.17-1.24a10.4,10.4,0,0,0-3.39-5.8c-.85-.73-1.86-1.56-3.05-1.29-1.38.32-1.76,1.57-1.89,2.87a2.21,2.21,0,0,0-.95-.43,2.58,2.58,0,0,0-2.86,1.19C343.69,100.76,344.37,102.24,344.94,103.57Z"/><path class="cls-4" d="M356.42,140.37a17.12,17.12,0,0,0,2.41,3.88,2,2,0,0,0,2.09.51,2.13,2.13,0,0,0,3.66-.71,6.76,6.76,0,0,0,.22-2l1,1.13a2.09,2.09,0,0,0,2.2.45,2,2,0,0,0,1.25-1.81,19.37,19.37,0,0,0-.29-5.11,13.12,13.12,0,0,0-.69-2.47A5.16,5.16,0,0,0,367,132a1.39,1.39,0,0,0-2.36,1,3.79,3.79,0,0,0,.12,1.34c.05.2.06.4.11.55s.11.59.05.29c0,.15.06.3.06.45a11.34,11.34,0,0,1-.72-1.23,2,2,0,0,0-3.52,0,6.27,6.27,0,0,0-.38.95,2.12,2.12,0,0,0-1.45-.33,2,2,0,0,0-.31-.39,1.81,1.81,0,0,0-1.84-.51,1.84,1.84,0,0,0-1.32,1.31C354.82,136.92,355.75,138.89,356.42,140.37Z"/><path class="cls-4" d="M338.83,131.79a1.69,1.69,0,0,0,.81.63l.4.15a5.69,5.69,0,0,0-.28,1,2.21,2.21,0,0,0,0,1,2.79,2.79,0,0,0,.47.84,2,2,0,0,0,1.84.51,11.92,11.92,0,0,0,1.78-.58,6.19,6.19,0,0,0,1.28-.72,7,7,0,0,0,2.29-2.67,1.23,1.23,0,0,0-.28-1.59,1.22,1.22,0,0,0-1.59.08l-.05.05c.24-.45.53-1,.77-1.4a2.24,2.24,0,0,0-.29-2.58,2.05,2.05,0,0,0-.9-.53,2.35,2.35,0,0,0-1.64.18c-.69.46-1.37.92-2.11,1.38-.35.2-.69.46-1,.66a5.52,5.52,0,0,0-1.62,1.37A2.11,2.11,0,0,0,338.83,131.79Z"/><path class="cls-8" d="M989.67,34.8c-2.89-7.06-14.86-12.9-23.3-8.11a16.82,16.82,0,0,1,6,2.43c15.84,10.69,8.81,20.1,8.81,20.1a50.41,50.41,0,0,1,8-.36C989.4,48.24,992.3,41.55,989.67,34.8Z"/><path class="cls-9" d="M995.53,30.55s-1.81-10.81-12.47-14.87c-10.31-4-17.85-.11-18.36.21a17.25,17.25,0,0,1-5.31,10.16l.17.79a19.54,19.54,0,0,1,6.73-.08c8.51-4.72,20.49,1,23.3,8.1,2.71,6.69-.26,13.45-.51,14.07,5.23.18,12,1.17,16.56,4.85a16.58,16.58,0,0,0-.56-15C1000.82,31,995.53,30.55,995.53,30.55Z"/><path class="cls-10" d="M993.28,15.33S989.36-8.3,963.15,3.11a25.92,25.92,0,0,1,1.62,12.72c.52-.33,8.05-4,18.36-.21,10.73,4.13,12.48,14.87,12.48,14.87s5.28.4,9.54,8.24a16.61,16.61,0,0,1,.56,15,12.8,12.8,0,0,1,4.56,6.51c1.73,5.28-1.56,10.32-7.5,14.63,36.09-22.14,13.42-34.67,13.42-34.67s6.44-12.49.08-19.68C1005.41,8.35,993.28,15.33,993.28,15.33Z"/><path class="cls-11" d="M964.71,15.75A25.32,25.32,0,0,0,963.09,3s-7.64-1.4-22.2,11.73c-19.65,17.63-13.83,46-12.07,53.09l.07-.06A30.89,30.89,0,0,1,934,42.47s12.59-13.39,25.56-15.77l-.16-.79A17.25,17.25,0,0,0,964.71,15.75Z"/><path class="cls-12" d="M1010.2,60.16a14.44,14.44,0,0,0-4.55-6.52c-4.59-3.69-11.26-4.74-16.57-4.85a51.16,51.16,0,0,0-8,.35s7-9.41-8.82-20.1a15.18,15.18,0,0,0-6-2.42,18,18,0,0,0-6.74.08C946.6,28.94,934,42.47,934,42.47a30.89,30.89,0,0,0-5.11,25.33C931.65,78.17,941.1,86.9,960,87.15c13.73.15,32.11-4.88,42.56-12.24l.15-.13C1008.63,70.62,1012,65.51,1010.2,60.16Z"/><path class="cls-4" d="M967.08,51.68a10.59,10.59,0,0,1,1.11,9.56,56.29,56.29,0,0,1,6.11-.19c3,0,6.15.17,8.59,2a7.12,7.12,0,0,1,2.39,8.29c-2,5.48-9.59,7.27-14.63,8.52a31.26,31.26,0,0,1-16.35-.23,2.4,2.4,0,0,1-1.16-.71,5.28,5.28,0,0,1-2.5-1.93c-1.38-1.86-1.56-4.63-2.07-6.72s-.94-4.23-1.45-6.32c-1.14-4.46-2.14-8.92-3.28-13.38a4.24,4.24,0,0,1,3.56-4.88C954.62,44.81,962.84,44.75,967.08,51.68Z"/><path class="cls-1" d="M1824.82,78.72C1525.22,119.06,916,172.14,876,61.81"/><path class="cls-2" d="M1091.22,115.81s-13.75-12.52-4.64-21c11.16-10.39,25.37,4.47,25.37,4.47a17.76,17.76,0,0,1,21.83-4.69c13.61,6.26,5.48,23,5.48,23s14.65,7.72,11.06,22.82c-2.92,12.36-16.83,16-25.43,6.19,0,0-2,22.53-18.56,21.79s-11.29-20.63-9-27.1c0,0-20,5.4-23.08-9.88S1087.35,114.87,1091.22,115.81Z"/><path class="cls-3" d="M1119.16,119.73c6.7,4.3,9.62,11.7,6.52,16.54s-11,5.27-17.75,1-9.62-11.69-6.52-16.53S1112.46,115.44,1119.16,119.73Z"/><path class="cls-4" d="M1093.28,127.07a2.8,2.8,0,0,1-1.37,2.86l-4,2c.31.07.62.2.93.27a.43.43,0,0,1,.25.07c-.5-.14.5.07.69.07h.5l1.13,0a2,2,0,0,1,1.79,1.16,1.9,1.9,0,0,1-.35,2.13,5.9,5.9,0,0,1-3,1.38,9.07,9.07,0,0,1-3.44-.18c-2-.41-4.43-1.15-5.59-2.92a3.69,3.69,0,0,1,.33-4.51,6.07,6.07,0,0,1,1.4-1,7.1,7.1,0,0,1-1-.83,4.51,4.51,0,0,1-1.12-4.28c.8-2.62,3.51-3.39,6-3.34a7.78,7.78,0,0,1,3.56.75,6.68,6.68,0,0,1,1.36.9,7.81,7.81,0,0,1,.61.76,2.24,2.24,0,0,1,.3.89c0-.13,0-.13.06.06A1.84,1.84,0,0,1,1092,125,3.16,3.16,0,0,1,1093.28,127.07Z"/><path class="cls-4" d="M1101.2,108.22a2.41,2.41,0,0,1-.72,1.49,2.69,2.69,0,0,1-3.27.45c-.43-.33-.86-.58-1.3-.9.49.69,1,1.39,1.41,2.09a2,2,0,0,1-.49,2.62,2,2,0,0,1-2.63-.11,19.9,19.9,0,0,1-4.06-4.14c-1.1-1.59-2.19-3.8-2-5.74a3.39,3.39,0,0,1,2.62-3,3.46,3.46,0,0,1,1.81,0c-.23-.69-.41-1.39-.59-2.08-.34-1.63.76-3.75,2.64-3.52a6.53,6.53,0,0,1,2.8.92c.85-1.74,3.55-2.32,4.64-.35a30.71,30.71,0,0,1,2.29,5.11,15.3,15.3,0,0,1,1.1,5.48A2.47,2.47,0,0,1,1101.2,108.22Z"/><path class="cls-4" d="M1131.48,107.44a21,21,0,0,1-2.26,4,2.61,2.61,0,0,1-3.53.94,3.06,3.06,0,0,1-1.34-2.28,2.5,2.5,0,0,1-2.64-3.06c.14-.69.34-1.37.42-2.12-.26.43-.59.93-.84,1.36l-.39.75c0,.06-.13.24-.13.31a1.5,1.5,0,0,0-.14.5c-.2.68-.33,1.31-.53,2a1.86,1.86,0,0,1-3.58,0,8.11,8.11,0,0,1-.15-1.69c.07-.5.14-1.07.21-1.57a11.67,11.67,0,0,1,.93-2.86,12.33,12.33,0,0,1,3.34-4.46c1.08-.92,2.35-2,3.85-1.62,1.75.41,2.22,2,2.38,3.61a3.09,3.09,0,0,1,1.2-.54,3.25,3.25,0,0,1,3.61,1.51C1133.05,103.9,1132.2,105.77,1131.48,107.44Z"/><path class="cls-4" d="M1117,153.88a21.68,21.68,0,0,1-3,4.89,2.52,2.52,0,0,1-2.65.64,2.7,2.7,0,0,1-4.62-.89,9,9,0,0,1-.27-2.51l-1.27,1.41a2.65,2.65,0,0,1-2.77.58,2.59,2.59,0,0,1-1.59-2.28,24.36,24.36,0,0,1,.37-6.45,16.79,16.79,0,0,1,.87-3.12,6.59,6.59,0,0,1,1.68-2.85,1.76,1.76,0,0,1,3,1.24,5.36,5.36,0,0,1-.15,1.69c-.07.25-.08.5-.14.69s-.14.75-.07.37c0,.19-.07.38-.07.57a13.92,13.92,0,0,0,.9-1.55c.91-1.62,3.61-1.82,4.45-.05a10,10,0,0,1,.48,1.2,2.66,2.66,0,0,1,1.83-.41,2.38,2.38,0,0,1,4.37.52C1119,149.52,1117.84,152,1117,153.88Z"/><path class="cls-4" d="M1139.18,143.05a2.15,2.15,0,0,1-1,.8l-.5.18a7.76,7.76,0,0,1,.35,1.2,2.78,2.78,0,0,1,0,1.25,3.28,3.28,0,0,1-.58,1.05,2.44,2.44,0,0,1-2.33.65,14.63,14.63,0,0,1-2.24-.73,8.57,8.57,0,0,1-1.62-.9,8.89,8.89,0,0,1-2.88-3.38,1.52,1.52,0,0,1,2.35-1.9l.06.07c-.3-.57-.66-1.21-1-1.78a2.85,2.85,0,0,1,.37-3.25,2.64,2.64,0,0,1,1.14-.67,3.05,3.05,0,0,1,2.07.23c.86.58,1.73,1.16,2.66,1.74.44.26.87.58,1.24.83a7,7,0,0,1,2,1.73A2.67,2.67,0,0,1,1139.18,143.05Z"/><path class="cls-5" d="M1536,92.29c7.52-7.25,8.94-48-21.14-51.28-24.85-2.77-30.05,24.54-23.3,37.57C1499.92,94.67,1526.26,101.72,1536,92.29Z"/><path class="cls-6" d="M1508.54,58.23A69.46,69.46,0,0,0,1517.39,77a68.62,68.62,0,0,0,14,15.55,86.57,86.57,0,0,0,8.56,6c3.18,1.51,6.23,3.36,9.58,4.36a41.69,41.69,0,0,0,5,1.6l5.1,1.13a30.57,30.57,0,0,0,5.16.62c1.75.15,3.49.3,5.18.38a1,1,0,0,0,1.12-1,1.11,1.11,0,0,0-.85-1.12h-.12c-6.61-1.28-13.16-2.5-19.16-5.29a87.46,87.46,0,0,1-8.83-4.4,76.46,76.46,0,0,1-8-5.79,82.78,82.78,0,0,1-13.59-14.32c-1-1.35-1.93-2.71-2.84-4.12s-1.81-2.83-2.6-4.24a70.69,70.69,0,0,1-4.55-8.86l-.06-.06a1,1,0,0,0-1.39-.49A1.09,1.09,0,0,0,1508.54,58.23Z"/><path class="cls-5" d="M1537.92,127.22c8.73,5.73,17.67,45.47-11.27,54.31-23.91,7.33-34.08-18.55-29.86-32.61C1502,131.57,1526.58,119.77,1537.92,127.22Z"/><path class="cls-6" d="M1517.21,165.78a69.5,69.5,0,0,1,5.23-20.09,68.54,68.54,0,0,1,10.85-17.87,83.72,83.72,0,0,1,7.3-7.51c2.84-2.07,5.49-4.46,8.61-6.06a42,42,0,0,1,4.59-2.5l4.8-2.06a31.07,31.07,0,0,1,5-1.56c1.69-.47,3.37-.94,5-1.34a1.06,1.06,0,0,1,1.29.75,1.12,1.12,0,0,1-.63,1.26l-.12,0c-6.26,2.49-12.47,4.9-17.85,8.75a85.8,85.8,0,0,0-7.85,6,75.33,75.33,0,0,0-6.78,7.17,83,83,0,0,0-10.7,16.59c-.7,1.51-1.4,3-2,4.58s-1.26,3.11-1.78,4.64a72.69,72.69,0,0,0-2.83,9.56l0,.06a1,1,0,0,1-1.28.74A1.1,1.1,0,0,1,1517.21,165.78Z"/><path class="cls-5" d="M1385,104.39c7.66-7.4,9.11-48.89-21.55-52.29-25.34-2.82-30.64,25-23.76,38.31C1348.13,106.81,1375,114,1385,104.39Z"/><path class="cls-6" d="M1356.92,69.66a70.52,70.52,0,0,0,9,19.14,69.49,69.49,0,0,0,14.25,15.86,85.35,85.35,0,0,0,8.72,6.14c3.24,1.54,6.35,3.44,9.77,4.45a43.21,43.21,0,0,0,5.07,1.63L1409,118a30.72,30.72,0,0,0,5.27.63c1.77.15,3.55.3,5.27.39a1.07,1.07,0,0,0,1.14-1,1.12,1.12,0,0,0-.87-1.14h-.11c-6.74-1.31-13.42-2.56-19.54-5.39a93,93,0,0,1-9-4.49,78.41,78.41,0,0,1-8.14-5.9,85.3,85.3,0,0,1-13.86-14.6c-1-1.38-2-2.77-2.89-4.21s-1.85-2.88-2.65-4.31a70.88,70.88,0,0,1-4.64-9l-.06-.06a1,1,0,0,0-1.42-.5A1.11,1.11,0,0,0,1356.92,69.66Z"/><path class="cls-5" d="M1386.84,141.67c8.91,5.85,18,46.35-11.48,55.37-24.38,7.47-34.74-18.91-30.45-33.24C1350.21,146.1,1375.28,134.07,1386.84,141.67Z"/><path class="cls-6" d="M1365.73,181a70.82,70.82,0,0,1,5.33-20.48,69.71,69.71,0,0,1,11.07-18.22,85.4,85.4,0,0,1,7.43-7.65c2.9-2.12,5.6-4.55,8.78-6.18a41.09,41.09,0,0,1,4.68-2.55l4.89-2.1a32,32,0,0,1,5.06-1.59c1.72-.48,3.44-1,5.11-1.36a1.07,1.07,0,0,1,1.31.76,1.14,1.14,0,0,1-.64,1.28l-.12,0c-6.38,2.54-12.71,5-18.2,8.92a89.31,89.31,0,0,0-8,6.08,79.39,79.39,0,0,0-6.9,7.3,85.08,85.08,0,0,0-10.91,16.92c-.71,1.54-1.42,3.08-2.06,4.66s-1.29,3.18-1.81,4.74a72.45,72.45,0,0,0-2.89,9.74l0,.07a1,1,0,0,1-1.3.75A1.12,1.12,0,0,1,1365.73,181Z"/><path class="cls-5" d="M1196.6,152.49c6.66,4.61,12.86,35.58-9.75,41.9-18.67,5.24-26.07-15-22.54-25.84C1168.66,155.19,1187.94,146.5,1196.6,152.49Z"/><path class="cls-6" d="M1178.35,185a71,71,0,0,1,5.81-20.35,70,70,0,0,1,11.5-17.94,85.23,85.23,0,0,1,7.62-7.48c2.94-2,5.71-4.42,8.92-6a42.46,42.46,0,0,1,4.74-2.43l4.94-2a31.44,31.44,0,0,1,5.1-1.48c1.73-.43,3.46-.87,5.14-1.23a1.06,1.06,0,0,1,1.29.79,1.12,1.12,0,0,1-.68,1.26l-.11,0c-6.44,2.37-12.83,4.68-18.41,8.47a92.46,92.46,0,0,0-8.15,5.89,79.53,79.53,0,0,0-7.08,7.14,85.08,85.08,0,0,0-11.31,16.65c-.75,1.52-1.49,3-2.17,4.61s-1.36,3.14-1.92,4.69a72.45,72.45,0,0,0-3.12,9.67l0,.07a1,1,0,0,1-1.31.72A1.12,1.12,0,0,1,1178.35,185Z"/><path class="cls-5" d="M1202.12,104.77c8.86-5.91,17.67-46.49-11.9-55.28C1165.79,42.2,1155.62,68.65,1160,83,1165.46,100.61,1190.61,112.45,1202.12,104.77Z"/><path class="cls-6" d="M1180.72,65.61a70.71,70.71,0,0,0,5.48,20.45,69.62,69.62,0,0,0,11.2,18.13,86.77,86.77,0,0,0,7.49,7.6c2.91,2.09,5.63,4.51,8.82,6.11a40.27,40.27,0,0,0,4.7,2.51l4.91,2.07a31.29,31.29,0,0,0,5.07,1.55c1.72.47,3.45.93,5.12,1.33a1.07,1.07,0,0,0,1.3-.77,1.12,1.12,0,0,0-.65-1.28l-.12,0c-6.39-2.49-12.74-4.9-18.26-8.78a91.08,91.08,0,0,1-8-6,78.24,78.24,0,0,1-7-7.26,84.87,84.87,0,0,1-11-16.83c-.72-1.53-1.44-3.07-2.09-4.65s-1.31-3.16-1.85-4.72a74.09,74.09,0,0,1-3-9.72l0-.07a1,1,0,0,0-1.31-.74A1.1,1.1,0,0,0,1180.72,65.61Z"/><path class="cls-5" d="M1016,110.56c6.71-7.84,4.27-48-25.61-48.4-24.68-.38-27.21,26.94-19.35,39.12C980.69,116.3,1007.25,120.74,1016,110.56Z"/><path class="cls-6" d="M985.79,79.24a68.58,68.58,0,0,0,10.48,17.62,67.6,67.6,0,0,0,15.2,14,83.78,83.78,0,0,0,9,5.12c3.26,1.18,6.43,2.72,9.83,3.38a39.89,39.89,0,0,0,5,1.1l5.11.64a30.37,30.37,0,0,0,5.14.12c1.73,0,3.45,0,5.12-.11a1,1,0,0,0,1-1.06,1.09,1.09,0,0,0-.94-1h-.12c-6.61-.64-13.17-1.22-19.33-3.39a85.78,85.78,0,0,1-9.08-3.5,75.31,75.31,0,0,1-8.4-4.93,82.61,82.61,0,0,1-14.7-12.79c-1.08-1.24-2.15-2.48-3.18-3.79s-2.05-2.6-3-3.91a70.43,70.43,0,0,1-5.32-8.29l-.06-.05a1,1,0,0,0-1.41-.35A1.09,1.09,0,0,0,985.79,79.24Z"/><path class="cls-5" d="M1014.35,134.92c6.85,7.71,5.16,47.88-24.7,48.87-24.67.84-27.72-26.44-20.08-38.76C979,129.83,1005.45,124.9,1014.35,134.92Z"/><path class="cls-6" d="M984.7,166.35a68.69,68.69,0,0,1,10.14-17.8,67.48,67.48,0,0,1,14.95-14.25,83,83,0,0,1,8.88-5.28c3.24-1.25,6.38-2.84,9.76-3.56a40.15,40.15,0,0,1,5-1.2l5.11-.73a29.17,29.17,0,0,1,5.13-.22c1.72,0,3.45,0,5.12,0a1,1,0,0,1,1,1,1.08,1.08,0,0,1-.93,1h-.11c-6.6.76-13.15,1.46-19.26,3.75a85.16,85.16,0,0,0-9,3.66,75.92,75.92,0,0,0-8.3,5.09A82.45,82.45,0,0,0,997.75,151c-1,1.26-2.1,2.52-3.1,3.84s-2,2.65-2.89,4a69.9,69.9,0,0,0-5.15,8.38l-.06.05a1,1,0,0,1-1.41.38A1.09,1.09,0,0,1,984.7,166.35Z"/><path class="cls-5" d="M1715.73,72.35c7.64-7.37,9.08-48.71-21.47-52.09-25.24-2.81-30.52,24.93-23.67,38.17C1679.05,74.77,1705.81,81.93,1715.73,72.35Z"/><path class="cls-6" d="M1687.8,37.76a70.75,70.75,0,0,0,9,19.07A69.41,69.41,0,0,0,1711,72.62a86.47,86.47,0,0,0,8.69,6.13c3.23,1.53,6.33,3.42,9.74,4.42a40.59,40.59,0,0,0,5,1.63l5.18,1.16a31.5,31.5,0,0,0,5.25.62c1.77.15,3.54.3,5.25.39a1.06,1.06,0,0,0,1.14-1,1.12,1.12,0,0,0-.87-1.14h-.11c-6.72-1.31-13.37-2.55-19.47-5.37a90.19,90.19,0,0,1-9-4.48,77.76,77.76,0,0,1-8.11-5.87A84.71,84.71,0,0,1,1700,54.58c-1-1.38-2-2.76-2.88-4.19s-1.84-2.87-2.64-4.3a71.68,71.68,0,0,1-4.62-9l-.06-.06a1,1,0,0,0-1.41-.5A1.12,1.12,0,0,0,1687.8,37.76Z"/><path class="cls-5" d="M1717.62,109.5c8.87,5.82,18,46.18-11.44,55.17-24.29,7.44-34.62-18.84-30.33-33.13C1681.13,113.92,1706.1,101.93,1717.62,109.5Z"/><path class="cls-6" d="M1696.59,148.67a70.65,70.65,0,0,1,5.31-20.41,69.42,69.42,0,0,1,11-18.15,85,85,0,0,1,7.41-7.63c2.88-2.1,5.58-4.53,8.74-6.15a41.73,41.73,0,0,1,4.67-2.54l4.87-2.09a29.94,29.94,0,0,1,5.05-1.59c1.71-.48,3.42-1,5.08-1.36a1.07,1.07,0,0,1,1.31.76,1.14,1.14,0,0,1-.64,1.28l-.12,0c-6.35,2.53-12.66,5-18.13,8.89a90.47,90.47,0,0,0-8,6,78.94,78.94,0,0,0-6.88,7.28,84.85,84.85,0,0,0-10.87,16.85c-.71,1.54-1.42,3.07-2,4.65s-1.28,3.16-1.8,4.72a72,72,0,0,0-2.88,9.71l0,.07a1,1,0,0,1-1.29.75A1.12,1.12,0,0,1,1696.59,148.67Z"/><path class="cls-7" d="M1598.1,109.39s-9.1,3.58-13.59-6.87,6.33-22.72,21.83-18.08c0,0-4.18-18.94,12.46-21.21s21.29,21.42,21.29,21.42,24.15-4.09,27.92,12.19-19.74,13.84-19.74,13.84,9.93,11.86,1.61,19.12c-10.68,9.24-24.92-5.59-24.92-5.59s-6.66,15.32-19.92,11.1C1589.62,130.21,1598.1,109.39,1598.1,109.39Z"/><path class="cls-3" d="M1638.65,100.08c0,5.2-5.71,9.48-12.86,9.54s-13-4.1-13-9.31,5.71-9.48,12.86-9.55S1638.6,94.87,1638.65,100.08Z"/><path class="cls-4" d="M1619.45,118.66a13.24,13.24,0,0,1-.66,1.93,10.13,10.13,0,0,1-1.76,2.7,23.53,23.53,0,0,1-4.67,4,3.34,3.34,0,0,1-4.2-.62,2.91,2.91,0,0,1-2.1-.43,4.24,4.24,0,0,1-.69-.56,2.88,2.88,0,0,1-1.4,0,3.61,3.61,0,0,1-2.52-3.24,20,20,0,0,1,.91-7.08,13.39,13.39,0,0,1,1.54-3.4,12.87,12.87,0,0,1,2.55-2.92,2.6,2.6,0,0,1,3.35-.25,2.48,2.48,0,0,1,1,1.81,3.1,3.1,0,0,1,2.34.35,4.57,4.57,0,0,1,1.07,1h.39a3.48,3.48,0,0,1,2.54,1.76,3.15,3.15,0,0,1,2.3,2.23A7.59,7.59,0,0,1,1619.45,118.66Z"/><path class="cls-4" d="M1645.45,120.29a3.23,3.23,0,0,1-1.53,2.7,2.87,2.87,0,0,1-2.65.19,3.1,3.1,0,0,1-1,1.93,2.6,2.6,0,0,1-2.74.73,18.55,18.55,0,0,1-5.71-3.38,13.56,13.56,0,0,1-2.06-2.22,6.31,6.31,0,0,1-.84-1.34,4.44,4.44,0,0,1-.44-1.09,3.24,3.24,0,0,1,0-1.49,2.22,2.22,0,0,1,2.6-1.51c.08,0,.16.08.23.08a2.32,2.32,0,0,1,.65-1,4,4,0,0,1,3.45-1.26,2.59,2.59,0,0,1,.33-1.32,3.16,3.16,0,0,1,3.38-1.42,6.27,6.27,0,0,1,3.08,1.85,11.24,11.24,0,0,1,1.91,2.45A11,11,0,0,1,1645.45,120.29Z"/><path class="cls-4" d="M1603.75,102.71a1,1,0,0,1,.15.47,2.12,2.12,0,0,1-1,2.09,3.92,3.92,0,0,1-1.88.74,20.82,20.82,0,0,1-2.19.28,12.33,12.33,0,0,1-2.34-.2,5.55,5.55,0,0,1-1.93-.58,4.33,4.33,0,0,1-1-.72,3.76,3.76,0,0,1-.79-4.15,3.51,3.51,0,0,1,1-1.38,8.24,8.24,0,0,1,2.52-1.44,5.1,5.1,0,0,1,1.41-.44c.78-.14,1.57-.28,2.42-.35a13.47,13.47,0,0,1,2.5.2l.77.33a2.24,2.24,0,0,1,.92.8,3,3,0,0,1,.74,2A4,4,0,0,1,1603.75,102.71Z"/><path class="cls-4" d="M1627.12,81.93a5.73,5.73,0,0,1-.73,1.54,2,2,0,0,1-1.66,1.06,2.35,2.35,0,0,1-1.86-.57,3.41,3.41,0,0,1-.53-.56,7,7,0,0,1-.72.84,2.91,2.91,0,0,1-3.13.65c-.08,0-.15-.08-.23-.08a1.66,1.66,0,0,1-.48.54,2.13,2.13,0,0,1-2.8-.13,9.7,9.7,0,0,1-1.28-11.09,2.69,2.69,0,0,1,4.21-.55c.08,0,.08.08.08.16v-.08a3.64,3.64,0,0,1,4.25-2.11,4.52,4.52,0,0,1,2.83,2.62,22.33,22.33,0,0,1,1.28,3.07,12.67,12.67,0,0,1,.65,2.42A4.18,4.18,0,0,1,1627.12,81.93Z"/><path class="cls-4" d="M1658.93,99a4.68,4.68,0,0,1,.77.56,2.93,2.93,0,0,1,1.43,2.44,2.88,2.88,0,0,1-1.37,2.47,14.35,14.35,0,0,1-6,1.68,19.21,19.21,0,0,1-3-.13,11.54,11.54,0,0,1-3-.91,2.35,2.35,0,0,1-1-2.9,2.07,2.07,0,0,1,1.58-1.3,3.14,3.14,0,0,1-1.67-2.75,3.45,3.45,0,0,1,.66-1.94,3.46,3.46,0,0,1-2.12-3.16,3.52,3.52,0,0,1,.5-1.78,3.84,3.84,0,0,1,2-1.6,7.48,7.48,0,0,1,3.2-.18,14.75,14.75,0,0,1,3.18.61,30.62,30.62,0,0,1,2.87,1.14,7.15,7.15,0,0,1,2.38,1.68,4.09,4.09,0,0,1,.06,5.61C1659.32,98.71,1659.09,98.86,1658.93,99Z"/><path class="cls-7" d="M1283.35,135.29s-6.54,2.57-9.76-4.93,4.54-16.32,15.68-13c0,0-3-13.6,9-15.24s15.29,15.39,15.29,15.39,17.35-2.94,20,8.76-14.17,9.93-14.17,9.93,7.12,8.53,1.15,13.74c-7.67,6.64-17.9-4-17.9-4s-4.78,11-14.3,8C1277.26,150.24,1283.35,135.29,1283.35,135.29Z"/><path class="cls-3" d="M1312.47,128.6c0,3.74-4.1,6.81-9.23,6.86s-9.32-3-9.35-6.69,4.1-6.81,9.23-6.86S1312.44,124.86,1312.47,128.6Z"/><path class="cls-4" d="M1298.68,142a9.86,9.86,0,0,1-.47,1.39,7.14,7.14,0,0,1-1.26,1.93,16.71,16.71,0,0,1-3.36,2.91,2.41,2.41,0,0,1-3-.44,2.06,2.06,0,0,1-1.5-.31,3.5,3.5,0,0,1-.5-.4,2,2,0,0,1-1,0,2.58,2.58,0,0,1-1.8-2.33,14.36,14.36,0,0,1,.65-5.08,9.29,9.29,0,0,1,1.11-2.44,8.92,8.92,0,0,1,1.83-2.1,1.88,1.88,0,0,1,2.41-.18,1.81,1.81,0,0,1,.7,1.3,2.25,2.25,0,0,1,1.68.25,3.41,3.41,0,0,1,.77.75h.28a2.49,2.49,0,0,1,1.82,1.27,2.25,2.25,0,0,1,1.65,1.59A5.32,5.32,0,0,1,1298.68,142Z"/><path class="cls-4" d="M1317.36,143.12a2.35,2.35,0,0,1-1.1,1.94,2,2,0,0,1-1.9.13,2.22,2.22,0,0,1-.7,1.39,1.87,1.87,0,0,1-2,.52,13.1,13.1,0,0,1-4.1-2.42,10.61,10.61,0,0,1-1.48-1.59,4.65,4.65,0,0,1-.6-1,3.11,3.11,0,0,1-.32-.79,2.22,2.22,0,0,1,0-1.06,1.58,1.58,0,0,1,1.86-1.09c.06,0,.12.06.17.06a1.79,1.79,0,0,1,.46-.72,2.88,2.88,0,0,1,2.48-.9,1.92,1.92,0,0,1,.24-1,2.26,2.26,0,0,1,2.43-1,4.45,4.45,0,0,1,2.21,1.33,8,8,0,0,1,1.37,1.76A7.89,7.89,0,0,1,1317.36,143.12Z"/><path class="cls-4" d="M1287.41,130.49a.8.8,0,0,1,.11.34,1.53,1.53,0,0,1-.7,1.5,2.84,2.84,0,0,1-1.35.53,14.21,14.21,0,0,1-1.58.2,8.56,8.56,0,0,1-1.67-.14,4.09,4.09,0,0,1-1.39-.42,3.12,3.12,0,0,1-.72-.51,2.66,2.66,0,0,1-.76-1.53,2.85,2.85,0,0,1,.88-2.45,6.05,6.05,0,0,1,1.81-1,3.65,3.65,0,0,1,1-.32c.56-.1,1.12-.2,1.74-.25a9.47,9.47,0,0,1,1.79.15l.55.23a1.67,1.67,0,0,1,.66.57,2.22,2.22,0,0,1,.54,1.41A3,3,0,0,1,1287.41,130.49Z"/><path class="cls-4" d="M1304.19,115.56a4,4,0,0,1-.52,1.11,1.48,1.48,0,0,1-1.19.77,1.74,1.74,0,0,1-1.34-.42,2.36,2.36,0,0,1-.38-.4,5.35,5.35,0,0,1-.52.61,2.08,2.08,0,0,1-2.24.46c-.06,0-.11-.06-.17-.06a1.17,1.17,0,0,1-.34.39,1.54,1.54,0,0,1-2-.09,7,7,0,0,1-.92-8,1.94,1.94,0,0,1,3-.39c.06,0,.06.05.06.11v-.06a2.62,2.62,0,0,1,3-1.51,3.24,3.24,0,0,1,2,1.88,15.72,15.72,0,0,1,.92,2.2,9.2,9.2,0,0,1,.47,1.75A3,3,0,0,1,1304.19,115.56Z"/><path class="cls-4" d="M1327,127.84a2.84,2.84,0,0,1,.55.4,2.05,2.05,0,0,1,.05,3.53,10.39,10.39,0,0,1-4.33,1.21,14.41,14.41,0,0,1-2.18-.1,8.45,8.45,0,0,1-2.12-.65,1.69,1.69,0,0,1-.69-2.08,1.45,1.45,0,0,1,1.14-.93,2.28,2.28,0,0,1-1.2-2,2.53,2.53,0,0,1,.47-1.4,2.47,2.47,0,0,1-1.52-2.26,2.4,2.4,0,0,1,.36-1.28,2.76,2.76,0,0,1,1.47-1.15,5.23,5.23,0,0,1,2.3-.13,10.86,10.86,0,0,1,2.29.43c.72.24,1.39.53,2,.82a5.36,5.36,0,0,1,1.72,1.21,3,3,0,0,1,0,4C1327.32,127.62,1327.15,127.73,1327,127.84Z"/><path class="cls-2" d="M1448.63,110.2s-10.9-9.93-3.68-16.61c8.84-8.24,20.11,3.54,20.11,3.54a14.07,14.07,0,0,1,17.3-3.71c10.79,5,4.35,18.25,4.35,18.25s11.61,6.12,8.77,18.1c-2.31,9.79-13.34,12.67-20.16,4.9,0,0-1.56,17.86-14.72,17.28s-8.94-16.36-7.16-21.49c0,0-15.88,4.28-18.29-7.83S1445.56,109.45,1448.63,110.2Z"/><path class="cls-3" d="M1470.78,113.31c5.31,3.4,7.62,9.27,5.16,13.1s-8.75,4.18-14.06.78-7.63-9.27-5.17-13.11S1465.47,109.9,1470.78,113.31Z"/><path class="cls-4" d="M1450.26,119.12a2.22,2.22,0,0,1-1.08,2.27c-1.06.53-2.16,1-3.21,1.58.25,0,.49.16.74.21a.33.33,0,0,1,.2.06c-.4-.11.39.05.54.06h.4l.9,0a1.6,1.6,0,0,1,1.42.92,1.51,1.51,0,0,1-.28,1.68,4.61,4.61,0,0,1-2.35,1.1,7,7,0,0,1-2.73-.15c-1.59-.32-3.51-.9-4.43-2.31a2.9,2.9,0,0,1,.26-3.57,4.6,4.6,0,0,1,1.11-.83,4.89,4.89,0,0,1-.84-.66,3.58,3.58,0,0,1-.88-3.39c.63-2.08,2.78-2.68,4.77-2.65a6.23,6.23,0,0,1,2.82.6,5,5,0,0,1,1.08.71,5.11,5.11,0,0,1,.48.61,1.54,1.54,0,0,1,.24.7c0-.1,0-.1,0,0a1.47,1.47,0,0,1-.22,1.34A2.5,2.5,0,0,1,1450.26,119.12Z"/><path class="cls-4" d="M1456.54,104.18a1.91,1.91,0,0,1-.57,1.18,2.12,2.12,0,0,1-2.59.36c-.34-.26-.69-.46-1-.72.39.55.78,1.11,1.11,1.66a1.61,1.61,0,0,1-.38,2.08,1.59,1.59,0,0,1-2.09-.09,15.88,15.88,0,0,1-3.22-3.28,7.31,7.31,0,0,1-1.55-4.55,2.69,2.69,0,0,1,2.07-2.35,2.8,2.8,0,0,1,1.44,0c-.18-.55-.32-1.1-.46-1.65-.28-1.3.6-3,2.08-2.8a5.22,5.22,0,0,1,2.23.74,2.09,2.09,0,0,1,3.68-.28,24.43,24.43,0,0,1,1.81,4,12,12,0,0,1,.87,4.34A2,2,0,0,1,1456.54,104.18Z"/><path class="cls-4" d="M1480.54,103.57a16.38,16.38,0,0,1-1.79,3.14,2.05,2.05,0,0,1-2.8.75,2.39,2.39,0,0,1-1.06-1.81,2,2,0,0,1-2.09-2.42,16.65,16.65,0,0,0,.33-1.68c-.21.34-.46.73-.67,1.08l-.31.59s-.1.2-.1.25a1.34,1.34,0,0,0-.11.39c-.15.54-.26,1-.42,1.58a1.47,1.47,0,0,1-2.83,0,6.09,6.09,0,0,1-.13-1.34c.06-.4.12-.84.17-1.24a10.45,10.45,0,0,1,3.38-5.8c.86-.73,1.87-1.56,3.06-1.29,1.38.32,1.76,1.57,1.88,2.87a2.3,2.3,0,0,1,1-.43,2.58,2.58,0,0,1,2.86,1.19C1481.79,100.76,1481.11,102.24,1480.54,103.57Z"/><path class="cls-4" d="M1469.06,140.37a17.12,17.12,0,0,1-2.41,3.88,2,2,0,0,1-2.09.51,2.14,2.14,0,0,1-3.67-.71,7.1,7.1,0,0,1-.21-2l-1,1.13a2.1,2.1,0,0,1-2.2.45,2.06,2.06,0,0,1-1.26-1.81,20.26,20.26,0,0,1,.29-5.11,14.81,14.81,0,0,1,.69-2.47,5.28,5.28,0,0,1,1.34-2.26,1.39,1.39,0,0,1,2.36,1,4,4,0,0,1-.12,1.34c0,.2-.06.4-.11.55s-.11.59-.05.29c0,.15-.06.3-.06.45a11.34,11.34,0,0,0,.72-1.23,2,2,0,0,1,3.52,0,6.27,6.27,0,0,1,.38.95,2.11,2.11,0,0,1,1.45-.33,2,2,0,0,1,.31-.39,1.81,1.81,0,0,1,1.84-.51,1.84,1.84,0,0,1,1.32,1.31C1470.66,136.92,1469.73,138.89,1469.06,140.37Z"/><path class="cls-4" d="M1486.65,131.79a1.69,1.69,0,0,1-.81.63l-.4.15a5.69,5.69,0,0,1,.28,1,2.07,2.07,0,0,1,0,1,2.56,2.56,0,0,1-.46.84,2,2,0,0,1-1.84.51,11.92,11.92,0,0,1-1.78-.58,6.19,6.19,0,0,1-1.28-.72,7,7,0,0,1-2.29-2.67,1.21,1.21,0,0,1,1.87-1.51l0,.05-.76-1.4a2.24,2.24,0,0,1,.29-2.58,2.05,2.05,0,0,1,.9-.53,2.35,2.35,0,0,1,1.64.18c.69.46,1.37.92,2.11,1.38.35.2.69.46,1,.66a5.52,5.52,0,0,1,1.62,1.37A2.11,2.11,0,0,1,1486.65,131.79Z"/><path class="cls-8" d="M835.81,34.8c2.89-7.06,14.86-12.9,23.3-8.11a16.74,16.74,0,0,0-6,2.43c-15.85,10.69-8.82,20.1-8.82,20.1a50.33,50.33,0,0,0-7.95-.36C836.08,48.24,833.18,41.55,835.81,34.8Z"/><path class="cls-9" d="M830,30.55s1.81-10.81,12.47-14.87c10.31-4,17.84-.11,18.36.21a17.29,17.29,0,0,0,5.3,10.16l-.16.79a19.54,19.54,0,0,0-6.73-.08c-8.51-4.72-20.49,1-23.31,8.1-2.7,6.69.27,13.45.52,14.07-5.23.18-12,1.17-16.56,4.85a16.58,16.58,0,0,1,.56-15C824.66,31,830,30.55,830,30.55Z"/><path class="cls-10" d="M832.19,15.33S836.11-8.3,862.33,3.11a26,26,0,0,0-1.63,12.72c-.51-.33-8-4-18.36-.21-10.72,4.13-12.47,14.87-12.47,14.87s-5.28.4-9.55,8.24a16.62,16.62,0,0,0-.55,15,12.8,12.8,0,0,0-4.56,6.51c-1.73,5.28,1.56,10.32,7.5,14.63-36.09-22.14-13.42-34.67-13.42-34.67s-6.44-12.49-.08-19.68C820.07,8.35,832.19,15.33,832.19,15.33Z"/><path class="cls-11" d="M860.77,15.75A25.32,25.32,0,0,1,862.39,3s7.64-1.4,22.19,11.73c19.66,17.63,13.84,46,12.08,53.09l-.07-.06a30.86,30.86,0,0,0-5.12-25.33S878.88,29.08,865.91,26.7l.17-.79A17.25,17.25,0,0,1,860.77,15.75Z"/><path class="cls-12" d="M815.28,60.16a14.44,14.44,0,0,1,4.55-6.52c4.59-3.69,11.26-4.74,16.56-4.85a51.24,51.24,0,0,1,8,.35s-7-9.41,8.81-20.1a15.22,15.22,0,0,1,6-2.42,17.94,17.94,0,0,1,6.73.08c13,2.24,25.56,15.77,25.56,15.77a30.86,30.86,0,0,1,5.12,25.33c-2.76,10.37-12.21,19.1-31.11,19.35-13.74.15-32.11-4.88-42.56-12.24l-.15-.13C816.85,70.62,813.48,65.51,815.28,60.16Z"/><path class="cls-4" d="M858.39,51.68a10.62,10.62,0,0,0-1.11,9.56,56,56,0,0,0-6.1-.19c-3,0-6.15.17-8.59,2a7.12,7.12,0,0,0-2.39,8.29c2,5.48,9.59,7.27,14.63,8.52a31.26,31.26,0,0,0,16.35-.23,2.5,2.5,0,0,0,1.16-.71,5.28,5.28,0,0,0,2.5-1.93c1.37-1.86,1.56-4.63,2.06-6.72s1-4.23,1.45-6.32c1.14-4.46,2.14-8.92,3.28-13.38a4.24,4.24,0,0,0-3.56-4.88C870.86,44.81,862.64,44.75,858.39,51.68Z"/></svg>